<svg width="620" height="566" viewBox="0 0 620 566" fill="none" xmlns="http://www.w3.org/2000/svg">
<mask id="mask0" mask-type="alpha" maskUnits="userSpaceOnUse" x="161" y="163" width="337" height="403">
<path d="M294.196 163.802L289.757 172.293C287.641 176.341 286.317 180.756 285.857 185.301L283.896 204.669L172.854 314.578C161.364 325.95 158.359 343.36 165.37 357.926L243.693 520.641C224.656 526.307 211.919 532.398 205.484 538.915C199.049 545.432 197.166 554.146 199.836 565.056L278.58 565.163L286.554 540.244L289.259 526.847C289.695 524.689 291.798 523.293 293.956 523.728C295.264 523.993 296.353 524.894 296.858 526.129L312.802 565.163H328.085L315.46 506.687C311.524 496.646 308.201 489.004 305.492 483.761C302.783 478.519 299.024 472.458 294.216 465.578L229.406 341.225L322.437 221.946L408.491 527.287C390.181 530.545 378.552 534.975 373.604 540.577C368.656 546.178 367.659 554.595 370.614 565.828H464.309L462.261 527.328C462.203 526.228 463.047 525.289 464.146 525.231C464.987 525.186 465.766 525.675 466.091 526.452L482.583 565.828H497.202C488.628 535.682 483.09 516.411 480.59 508.016C476.652 494.797 461.651 474.791 464.309 483.761C464.309 483.761 453.402 442.991 433.41 390.066C426.94 372.938 415.717 352.74 408.583 334.592C396.161 302.991 381.095 264.664 363.385 219.611C360.193 211.493 361.476 196.688 355.662 181.9C354.006 177.687 349.355 171.876 341.708 164.466L294.196 163.802Z" fill="white"/>
</mask>
<g mask="url(#mask0)">
<path d="M294.196 163.802L289.757 172.293C287.641 176.341 286.317 180.756 285.857 185.301L283.896 204.669L172.854 314.578C161.364 325.95 158.359 343.36 165.37 357.926L243.693 520.641C224.656 526.307 211.919 532.398 205.484 538.915C199.049 545.432 197.166 554.146 199.836 565.056L278.58 565.163L286.554 540.244L289.259 526.847C289.695 524.689 291.798 523.293 293.956 523.728C295.264 523.993 296.353 524.894 296.858 526.129L312.802 565.163H328.085L315.46 506.687C311.524 496.646 308.201 489.004 305.492 483.761C302.783 478.519 299.024 472.458 294.216 465.578L229.406 341.225L322.437 221.946L408.491 527.287C390.181 530.545 378.552 534.975 373.604 540.577C368.656 546.178 367.659 554.595 370.614 565.828H464.309L462.261 527.328C462.203 526.228 463.047 525.289 464.146 525.231C464.987 525.186 465.766 525.675 466.091 526.452L482.583 565.828H497.202C488.628 535.682 483.09 516.411 480.59 508.016C476.652 494.797 461.651 474.791 464.309 483.761C464.309 483.761 453.402 442.991 433.41 390.066C426.94 372.938 415.717 352.74 408.583 334.592C396.161 302.991 381.095 264.664 363.385 219.611C360.193 211.493 361.476 196.688 355.662 181.9C354.006 177.687 349.355 171.876 341.708 164.466L294.196 163.802Z" fill="#FF567B"/>
<path fill-rule="evenodd" clip-rule="evenodd" d="M222.429 483.429L308.482 461.833L347.688 570.479H191.529L222.429 483.429Z" fill="#002D6F"/>
<path fill-rule="evenodd" clip-rule="evenodd" d="M385.897 474.791L470.954 482.765L516.473 589.086H360.314L385.897 474.791Z" fill="#002D6F"/>
</g>
<mask id="mask1" mask-type="alpha" maskUnits="userSpaceOnUse" x="91" y="45" width="415" height="250">
<path d="M276.586 79.4096L137.704 45.8521L91.8535 183.405L153.653 187.392L176.578 107.319L283.896 122.27L291.205 163.84H341.708L347.024 111.97L449.358 279.426L497.202 294.045L505.841 279.426L468.628 172.773L364.633 75.4226C344.688 80.5521 330.29 82.8905 321.44 82.4379C299.29 81.305 284.339 80.2956 276.586 79.4096Z" fill="white"/>
</mask>
<g mask="url(#mask1)">
<path d="M276.586 79.4096L137.704 45.8521L91.8535 183.405L153.653 187.392L176.578 107.319L283.896 122.27L291.205 163.84H341.708L347.024 111.97L449.358 279.426L497.202 294.045L505.841 279.426L468.628 172.773L364.633 75.4226C344.688 80.5521 330.29 82.8905 321.44 82.4379C299.29 81.305 284.339 80.2956 276.586 79.4096Z" fill="#FFE694"/>
<path d="M350.03 128.079C349.666 128.126 349.333 127.868 349.287 127.504C349.24 127.14 349.498 126.807 349.862 126.761L354.197 126.209C354.561 126.163 354.894 126.42 354.94 126.784C354.987 127.148 354.729 127.481 354.365 127.527L350.03 128.079ZM350.115 121.142C349.751 121.188 349.418 120.931 349.371 120.567C349.325 120.203 349.583 119.87 349.947 119.824L354.282 119.272C354.646 119.226 354.979 119.483 355.025 119.847C355.071 120.211 354.814 120.544 354.45 120.59L350.115 121.142ZM368.009 125.689C367.645 125.735 367.312 125.478 367.266 125.114C367.22 124.749 367.477 124.417 367.841 124.37L372.177 123.819C372.541 123.772 372.873 124.03 372.92 124.394C372.966 124.758 372.708 125.091 372.344 125.137L368.009 125.689ZM368.094 118.752C367.73 118.798 367.397 118.54 367.351 118.176C367.304 117.812 367.562 117.48 367.926 117.433L372.261 116.882C372.625 116.835 372.958 117.093 373.004 117.457C373.051 117.821 372.793 118.154 372.429 118.2L368.094 118.752ZM358.841 127.287C358.482 127.361 358.131 127.129 358.057 126.769C357.983 126.41 358.215 126.059 358.574 125.985L362.818 125.114C363.177 125.04 363.529 125.271 363.602 125.631C363.676 125.99 363.445 126.342 363.085 126.416L358.841 127.287ZM358.926 120.35C358.567 120.423 358.215 120.192 358.142 119.832C358.068 119.473 358.299 119.122 358.659 119.048L362.902 118.177C363.262 118.103 363.613 118.334 363.687 118.694C363.761 119.053 363.529 119.405 363.17 119.478L358.926 120.35ZM376.821 124.896C376.461 124.97 376.11 124.739 376.036 124.379C375.962 124.02 376.194 123.668 376.553 123.595L380.797 122.723C381.157 122.65 381.508 122.881 381.582 123.241C381.655 123.6 381.424 123.951 381.064 124.025L376.821 124.896ZM376.905 117.959C376.546 118.033 376.195 117.801 376.121 117.442C376.047 117.082 376.279 116.731 376.638 116.657L380.882 115.786C381.241 115.712 381.592 115.944 381.666 116.304C381.74 116.663 381.508 117.014 381.149 117.088L376.905 117.959ZM385.988 123.299C385.624 123.345 385.292 123.087 385.245 122.723C385.199 122.359 385.457 122.026 385.821 121.98L390.156 121.428C390.52 121.382 390.853 121.64 390.899 122.004C390.945 122.368 390.688 122.7 390.324 122.747L385.988 123.299ZM386.073 116.361C385.709 116.408 385.376 116.15 385.33 115.786C385.284 115.422 385.541 115.089 385.905 115.043L390.24 114.491C390.605 114.445 390.937 114.702 390.984 115.066C391.03 115.431 390.772 115.763 390.408 115.81L386.073 116.361ZM394.8 122.506C394.441 122.58 394.089 122.348 394.016 121.989C393.942 121.629 394.173 121.278 394.533 121.204L398.776 120.333C399.136 120.259 399.487 120.491 399.561 120.85C399.635 121.21 399.403 121.561 399.044 121.635L394.8 122.506ZM394.885 115.569C394.525 115.643 394.174 115.411 394.1 115.052C394.026 114.692 394.258 114.341 394.617 114.267L398.861 113.396C399.22 113.322 399.572 113.554 399.646 113.913C399.719 114.273 399.488 114.624 399.128 114.698L394.885 115.569ZM350.199 114.205C349.835 114.251 349.502 113.994 349.456 113.63C349.41 113.266 349.667 112.933 350.031 112.887L354.367 112.335C354.731 112.288 355.063 112.546 355.11 112.91C355.156 113.274 354.898 113.607 354.534 113.653L350.199 114.205ZM368.179 111.815C367.814 111.861 367.482 111.603 367.435 111.239C367.389 110.875 367.647 110.543 368.011 110.496L372.346 109.944C372.71 109.898 373.043 110.156 373.089 110.52C373.135 110.884 372.878 111.216 372.514 111.263L368.179 111.815ZM359.011 113.412C358.651 113.486 358.3 113.255 358.226 112.895C358.152 112.536 358.384 112.184 358.744 112.111L362.987 111.239C363.347 111.166 363.698 111.397 363.772 111.757C363.845 112.116 363.614 112.467 363.254 112.541L359.011 113.412ZM376.99 111.022C376.631 111.096 376.279 110.864 376.206 110.505C376.132 110.145 376.363 109.794 376.723 109.72L380.966 108.849C381.326 108.775 381.677 109.007 381.751 109.366C381.825 109.726 381.593 110.077 381.234 110.151L376.99 111.022ZM386.158 109.424C385.794 109.471 385.461 109.213 385.415 108.849C385.368 108.485 385.626 108.152 385.99 108.106L390.325 107.554C390.689 107.508 391.022 107.765 391.068 108.129C391.115 108.493 390.857 108.826 390.493 108.872L386.158 109.424ZM394.969 108.632C394.61 108.706 394.259 108.474 394.185 108.114C394.111 107.755 394.343 107.404 394.702 107.33L398.946 106.459C399.305 106.385 399.656 106.617 399.73 106.976C399.804 107.336 399.572 107.687 399.213 107.761L394.969 108.632ZM350.284 107.268C349.92 107.314 349.587 107.057 349.541 106.693C349.494 106.328 349.752 105.996 350.116 105.949L354.451 105.398C354.815 105.351 355.148 105.609 355.194 105.973C355.241 106.337 354.983 106.67 354.619 106.716L350.284 107.268ZM368.263 104.877C367.899 104.924 367.566 104.666 367.52 104.302C367.474 103.938 367.731 103.605 368.095 103.559L372.431 103.007C372.795 102.961 373.127 103.218 373.174 103.583C373.22 103.947 372.962 104.279 372.598 104.326L368.263 104.877ZM359.095 106.475C358.736 106.549 358.385 106.318 358.311 105.958C358.237 105.599 358.469 105.247 358.828 105.173L363.072 104.302C363.431 104.228 363.783 104.46 363.856 104.82C363.93 105.179 363.699 105.53 363.339 105.604L359.095 106.475ZM377.075 104.085C376.715 104.159 376.364 103.927 376.29 103.568C376.216 103.208 376.448 102.857 376.807 102.783L381.051 101.912C381.411 101.838 381.762 102.07 381.836 102.429C381.909 102.789 381.678 103.14 381.318 103.214L377.075 104.085ZM386.242 102.487C385.878 102.533 385.546 102.276 385.499 101.912C385.453 101.548 385.711 101.215 386.075 101.169L390.41 100.617C390.774 100.571 391.107 100.828 391.153 101.192C391.199 101.556 390.942 101.889 390.578 101.935L386.242 102.487ZM395.054 101.695C394.695 101.768 394.343 101.537 394.269 101.177C394.196 100.818 394.427 100.467 394.787 100.393L399.03 99.5216C399.39 99.4478 399.741 99.6794 399.815 100.039C399.889 100.398 399.657 100.75 399.298 100.823L395.054 101.695ZM350.369 100.331C350.005 100.377 349.672 100.119 349.625 99.7554C349.579 99.3913 349.837 99.0586 350.201 99.0123L354.536 98.4605C354.9 98.4141 355.233 98.6717 355.279 99.0358C355.325 99.3998 355.068 99.7325 354.704 99.7789L350.369 100.331ZM368.348 97.9403C367.984 97.9867 367.651 97.7291 367.605 97.365C367.558 97.001 367.816 96.6683 368.18 96.6219L372.515 96.0702C372.879 96.0238 373.212 96.2814 373.258 96.6454C373.305 97.0095 373.047 97.3422 372.683 97.3885L368.348 97.9403ZM359.18 99.5382C358.821 99.612 358.469 99.3804 358.396 99.0209C358.322 98.6614 358.553 98.3101 358.913 98.2363L363.156 97.3651C363.516 97.2913 363.867 97.5229 363.941 97.8824C364.015 98.242 363.783 98.5932 363.424 98.667L359.18 99.5382ZM377.159 97.1479C376.8 97.2217 376.449 96.9901 376.375 96.6306C376.301 96.2711 376.533 95.9198 376.892 95.846L381.136 94.9748C381.495 94.901 381.846 95.1326 381.92 95.4921C381.994 95.8516 381.762 96.2029 381.403 96.2767L377.159 97.1479ZM386.327 95.55C385.963 95.5963 385.63 95.3388 385.584 94.9747C385.538 94.6106 385.795 94.2779 386.159 94.2316L390.494 93.6798C390.859 93.6335 391.191 93.891 391.238 94.2551C391.284 94.6192 391.026 94.9519 390.662 94.9982L386.327 95.55ZM395.139 94.7575C394.779 94.8313 394.428 94.5997 394.354 94.2402C394.28 93.8807 394.512 93.5295 394.871 93.4557L399.115 92.5845C399.475 92.5107 399.826 92.7423 399.9 93.1018C399.973 93.4613 399.742 93.8125 399.382 93.8863L395.139 94.7575ZM350.453 93.3935C350.089 93.4399 349.756 93.1823 349.71 92.8182C349.664 92.4542 349.921 92.1215 350.285 92.0751L354.621 91.5234C354.985 91.477 355.317 91.7346 355.364 92.0986C355.41 92.4627 355.152 92.7954 354.788 92.8417L350.453 93.3935ZM368.433 91.0032C368.068 91.0495 367.736 90.792 367.689 90.4279C367.643 90.0638 367.901 89.7311 368.265 89.6848L372.6 89.133C372.964 89.0867 373.297 89.3442 373.343 89.7083C373.389 90.0723 373.132 90.4051 372.768 90.4514L368.433 91.0032ZM359.265 92.6011C358.905 92.6749 358.554 92.4433 358.48 92.0838C358.406 91.7243 358.638 91.373 358.998 91.2992L363.241 90.428C363.601 90.3542 363.952 90.5858 364.026 90.9453C364.099 91.3048 363.868 91.6561 363.508 91.7299L359.265 92.6011ZM377.244 90.2107C376.885 90.2845 376.533 90.0529 376.46 89.6934C376.386 89.3339 376.617 88.9827 376.977 88.9089L381.22 88.0377C381.58 87.9639 381.931 88.1955 382.005 88.555C382.079 88.9145 381.847 89.2657 381.488 89.3396L377.244 90.2107ZM386.412 88.6129C386.048 88.6592 385.715 88.4016 385.669 88.0376C385.622 87.6735 385.88 87.3408 386.244 87.2945L390.579 86.7427C390.943 86.6963 391.276 86.9539 391.322 87.318C391.369 87.682 391.111 88.0147 390.747 88.0611L386.412 88.6129ZM395.223 87.8204C394.864 87.8942 394.513 87.6626 394.439 87.3031C394.365 86.9436 394.597 86.5923 394.956 86.5185L399.2 85.6473C399.559 85.5736 399.91 85.8051 399.984 86.1647C400.058 86.5242 399.826 86.8754 399.467 86.9492L395.223 87.8204ZM368.517 84.0661C368.153 84.1124 367.82 83.8548 367.774 83.4908C367.728 83.1267 367.985 82.794 368.349 82.7477L372.685 82.1959C373.049 82.1495 373.381 82.4071 373.428 82.7712C373.474 83.1352 373.216 83.4679 372.852 83.5143L368.517 84.0661ZM359.349 85.6639C358.99 85.7377 358.639 85.5061 358.565 85.1466C358.491 84.7872 358.723 84.4359 359.082 84.3621L363.326 83.4909C363.685 83.4171 364.037 83.6487 364.11 84.0082C364.184 84.3677 363.953 84.7189 363.593 84.7928L359.349 85.6639ZM377.329 83.2736C376.969 83.3474 376.618 83.1158 376.544 82.7563C376.47 82.3968 376.702 82.0456 377.062 81.9717L381.305 81.1006C381.665 81.0268 382.016 81.2584 382.09 81.6179C382.163 81.9774 381.932 82.3286 381.572 82.4024L377.329 83.2736ZM352.705 86.1805L352.538 84.8621L352.705 86.1805ZM352.705 86.1805L350.538 86.4564C349.659 86.5683 349.491 85.2499 350.37 85.138L352.538 84.8621L354.705 84.5862C355.584 84.4744 355.752 85.7927 354.873 85.9046L352.705 86.1805ZM388.664 81.3998L388.496 80.0815L388.664 81.3998ZM388.496 80.0815C389.375 79.9696 389.543 81.288 388.664 81.3998L386.496 81.6757C385.618 81.7876 385.45 80.4692 386.329 80.3573L388.496 80.0815L390.664 79.8056C391.543 79.6937 391.711 81.0121 390.832 81.1239L388.664 81.3998C387.785 81.5117 387.617 80.1933 388.496 80.0815ZM395.308 80.8833C394.949 80.9571 394.597 80.7255 394.523 80.366C394.45 80.0065 394.681 79.6552 395.041 79.5814L399.284 78.7102C399.644 78.6364 399.995 78.868 400.069 79.2275C400.143 79.587 399.911 79.9383 399.552 80.0121L395.308 80.8833ZM292.976 90.6823C292.962 90.3156 293.247 90.0066 293.614 89.9922C293.981 89.9778 294.29 90.2633 294.304 90.6301L294.476 94.9968C294.49 95.3635 294.205 95.6725 293.838 95.6869C293.471 95.7013 293.162 95.4157 293.148 95.049L292.976 90.6823ZM299.879 91.3713C299.865 91.0046 300.151 90.6956 300.517 90.6811C300.884 90.6667 301.193 90.9523 301.207 91.319L301.379 95.6857C301.394 96.0524 301.108 96.3614 300.741 96.3758C300.375 96.3903 300.066 96.1047 300.051 95.738L299.879 91.3713ZM293.79 108.802C293.776 108.435 294.061 108.126 294.428 108.111C294.795 108.097 295.104 108.383 295.118 108.749L295.29 113.116C295.305 113.483 295.019 113.792 294.652 113.806C294.286 113.821 293.977 113.535 293.962 113.168L293.79 108.802ZM300.694 109.49C300.679 109.124 300.965 108.815 301.332 108.8C301.698 108.786 302.007 109.071 302.022 109.438L302.194 113.805C302.208 114.172 301.922 114.481 301.556 114.495C301.189 114.509 300.88 114.224 300.866 113.857L300.694 109.49ZM292.998 99.5294C292.955 99.1648 293.217 98.8351 293.581 98.7929C293.946 98.7507 294.276 99.0121 294.318 99.3766L294.816 103.68C294.858 104.045 294.597 104.374 294.232 104.416C293.868 104.459 293.538 104.197 293.496 103.833L292.998 99.5294ZM299.901 100.218C299.859 99.8538 300.12 99.5241 300.485 99.4819C300.849 99.4397 301.179 99.701 301.221 100.066L301.719 104.369C301.761 104.733 301.5 105.063 301.135 105.105C300.771 105.148 300.441 104.886 300.399 104.522L299.901 100.218ZM293.812 117.649C293.77 117.284 294.031 116.954 294.396 116.912C294.76 116.87 295.09 117.131 295.132 117.496L295.63 121.799C295.672 122.164 295.411 122.493 295.046 122.536C294.682 122.578 294.352 122.316 294.31 121.952L293.812 117.649ZM300.715 118.338C300.673 117.973 300.934 117.643 301.299 117.601C301.663 117.559 301.993 117.82 302.035 118.185L302.533 122.488C302.576 122.853 302.314 123.182 301.95 123.225C301.585 123.267 301.255 123.005 301.213 122.641L300.715 118.338ZM294.605 126.921C294.59 126.554 294.876 126.245 295.242 126.231C295.609 126.216 295.918 126.502 295.933 126.868L296.104 131.235C296.119 131.602 295.833 131.911 295.467 131.925C295.1 131.94 294.791 131.654 294.776 131.287L294.605 126.921ZM301.508 127.61C301.493 127.243 301.779 126.934 302.146 126.92C302.512 126.905 302.821 127.191 302.836 127.557L303.008 131.924C303.022 132.291 302.737 132.6 302.37 132.614C302.003 132.629 301.694 132.343 301.68 131.976L301.508 127.61ZM294.626 135.768C294.584 135.403 294.845 135.073 295.21 135.031C295.574 134.989 295.904 135.25 295.946 135.615L296.444 139.918C296.486 140.283 296.225 140.613 295.861 140.655C295.496 140.697 295.166 140.436 295.124 140.071L294.626 135.768ZM301.529 136.457C301.487 136.092 301.749 135.762 302.113 135.72C302.478 135.678 302.807 135.939 302.85 136.304L303.348 140.607C303.39 140.972 303.128 141.302 302.764 141.344C302.399 141.386 302.07 141.125 302.027 140.76L301.529 136.457ZM306.783 92.0602C306.768 91.6935 307.054 91.3845 307.421 91.3701C307.787 91.3557 308.096 91.6412 308.111 92.0079L308.283 96.3747C308.297 96.7414 308.011 97.0504 307.645 97.0648C307.278 97.0792 306.969 96.7937 306.955 96.427L306.783 92.0602ZM307.597 110.179C307.583 109.813 307.868 109.504 308.235 109.489C308.602 109.475 308.911 109.76 308.925 110.127L309.097 114.494C309.111 114.861 308.826 115.17 308.459 115.184C308.092 115.198 307.783 114.913 307.769 114.546L307.597 110.179ZM306.804 100.907C306.762 100.543 307.023 100.213 307.388 100.171C307.753 100.129 308.082 100.39 308.124 100.755L308.622 105.058C308.665 105.422 308.403 105.752 308.039 105.794C307.674 105.837 307.344 105.575 307.302 105.211L306.804 100.907ZM307.618 119.027C307.576 118.662 307.838 118.332 308.202 118.29C308.567 118.248 308.896 118.509 308.939 118.874L309.437 123.177C309.479 123.542 309.218 123.871 308.853 123.914C308.488 123.956 308.159 123.694 308.116 123.33L307.618 119.027ZM308.411 128.299C308.397 127.932 308.682 127.623 309.049 127.608C309.416 127.594 309.725 127.88 309.739 128.246L309.911 132.613C309.926 132.98 309.64 133.289 309.273 133.303C308.907 133.318 308.598 133.032 308.583 132.665L308.411 128.299ZM308.433 137.146C308.391 136.781 308.652 136.451 309.016 136.409C309.381 136.367 309.711 136.628 309.753 136.993L310.251 141.296C310.293 141.661 310.032 141.991 309.667 142.033C309.303 142.075 308.973 141.814 308.931 141.449L308.433 137.146ZM313.686 92.7492C313.672 92.3825 313.957 92.0735 314.324 92.059C314.691 92.0446 315 92.3302 315.014 92.6969L315.186 97.0636C315.2 97.4303 314.915 97.7393 314.548 97.7538C314.181 97.7682 313.872 97.4826 313.858 97.1159L313.686 92.7492ZM314.5 110.868C314.486 110.502 314.772 110.193 315.138 110.178C315.505 110.164 315.814 110.449 315.828 110.816L316 115.183C316.015 115.55 315.729 115.859 315.362 115.873C314.996 115.887 314.687 115.602 314.672 115.235L314.5 110.868ZM313.708 101.596C313.665 101.232 313.927 100.902 314.291 100.86C314.656 100.818 314.986 101.079 315.028 101.443L315.526 105.747C315.568 106.111 315.307 106.441 314.942 106.483C314.578 106.526 314.248 106.264 314.206 105.9L313.708 101.596ZM314.522 119.715C314.48 119.351 314.741 119.021 315.106 118.979C315.47 118.937 315.8 119.198 315.842 119.563L316.34 123.866C316.382 124.231 316.121 124.56 315.756 124.603C315.392 124.645 315.062 124.383 315.02 124.019L314.522 119.715ZM315.315 128.988C315.3 128.621 315.586 128.312 315.952 128.297C316.319 128.283 316.628 128.569 316.643 128.935L316.814 133.302C316.829 133.669 316.543 133.978 316.177 133.992C315.81 134.007 315.501 133.721 315.486 133.354L315.315 128.988ZM315.336 137.835C315.294 137.47 315.555 137.14 315.92 137.098C316.284 137.056 316.614 137.317 316.656 137.682L317.154 141.985C317.197 142.35 316.935 142.68 316.571 142.722C316.206 142.764 315.876 142.503 315.834 142.138L315.336 137.835ZM320.59 93.4381C320.575 93.0714 320.861 92.7624 321.227 92.748C321.594 92.7336 321.903 93.0191 321.917 93.3859L322.089 97.7526C322.104 98.1193 321.818 98.4283 321.451 98.4427C321.085 98.4571 320.776 98.1716 320.761 97.8048L320.59 93.4381ZM321.404 111.557C321.389 111.191 321.675 110.882 322.042 110.867C322.408 110.853 322.717 111.138 322.732 111.505L322.904 115.872C322.918 116.238 322.632 116.547 322.266 116.562C321.899 116.576 321.59 116.291 321.576 115.924L321.404 111.557ZM320.611 102.285C320.569 101.921 320.83 101.591 321.195 101.549C321.559 101.507 321.889 101.768 321.931 102.132L322.429 106.436C322.471 106.8 322.21 107.13 321.845 107.172C321.481 107.214 321.151 106.953 321.109 106.589L320.611 102.285ZM321.425 120.404C321.383 120.04 321.644 119.71 322.009 119.668C322.373 119.626 322.703 119.887 322.745 120.252L323.243 124.555C323.286 124.92 323.024 125.249 322.66 125.291C322.295 125.334 321.965 125.072 321.923 124.708L321.425 120.404ZM322.218 129.677C322.204 129.31 322.489 129.001 322.856 128.986C323.223 128.972 323.532 129.258 323.546 129.624L323.718 133.991C323.732 134.358 323.447 134.667 323.08 134.681C322.713 134.696 322.404 134.41 322.39 134.043L322.218 129.677ZM322.239 138.524C322.197 138.159 322.459 137.829 322.823 137.787C323.188 137.745 323.517 138.006 323.56 138.371L324.058 142.674C324.1 143.039 323.839 143.368 323.474 143.411C323.109 143.453 322.78 143.192 322.737 142.827L322.239 138.524ZM327.493 94.1271C327.478 93.7604 327.764 93.4514 328.131 93.437C328.497 93.4225 328.806 93.7081 328.821 94.0748L328.993 98.4416C329.007 98.8083 328.722 99.1172 328.355 99.1317C327.988 99.1461 327.679 98.8605 327.665 98.4938L327.493 94.1271ZM328.307 112.246C328.293 111.88 328.578 111.571 328.945 111.556C329.312 111.542 329.621 111.827 329.635 112.194L329.807 116.561C329.821 116.927 329.536 117.236 329.169 117.251C328.802 117.265 328.493 116.98 328.479 116.613L328.307 112.246ZM327.514 102.974C327.472 102.61 327.733 102.28 328.098 102.238C328.463 102.195 328.792 102.457 328.835 102.821L329.333 107.125C329.375 107.489 329.113 107.819 328.749 107.861C328.384 107.903 328.055 107.642 328.012 107.278L327.514 102.974ZM328.329 121.093C328.286 120.729 328.548 120.399 328.912 120.357C329.277 120.315 329.607 120.576 329.649 120.941L330.147 125.244C330.189 125.608 329.928 125.938 329.563 125.98C329.198 126.023 328.869 125.761 328.827 125.397L328.329 121.093ZM329.121 130.365C329.107 129.999 329.392 129.69 329.759 129.675C330.126 129.661 330.435 129.946 330.449 130.313L330.621 134.68C330.636 135.047 330.35 135.356 329.983 135.37C329.617 135.384 329.308 135.099 329.293 134.732L329.121 130.365ZM329.143 139.213C329.101 138.848 329.362 138.518 329.726 138.476C330.091 138.434 330.421 138.695 330.463 139.06L330.961 143.363C331.003 143.728 330.742 144.057 330.377 144.1C330.013 144.142 329.683 143.88 329.641 143.516L329.143 139.213ZM335.21 112.935C335.196 112.569 335.482 112.26 335.848 112.245C336.215 112.231 336.524 112.516 336.538 112.883L336.71 117.25C336.725 117.616 336.439 117.925 336.072 117.94C335.706 117.954 335.397 117.669 335.382 117.302L335.21 112.935ZM334.418 103.663C334.375 103.299 334.637 102.969 335.001 102.927C335.366 102.884 335.696 103.146 335.738 103.51L336.236 107.814C336.278 108.178 336.017 108.508 335.652 108.55C335.288 108.592 334.958 108.331 334.916 107.966L334.418 103.663ZM335.232 121.782C335.19 121.418 335.451 121.088 335.816 121.046C336.18 121.004 336.51 121.265 336.552 121.63L337.05 125.933C337.092 126.297 336.831 126.627 336.466 126.669C336.102 126.712 335.772 126.45 335.73 126.086L335.232 121.782ZM334.482 96.9994L335.81 96.9471L334.482 96.9994ZM334.482 96.9994L334.396 94.816C334.361 93.9307 335.689 93.8784 335.724 94.7638L335.81 96.9471L335.896 99.1305C335.931 100.016 334.603 100.068 334.568 99.1828L334.482 96.9994ZM336.111 133.238L337.439 133.186L336.111 133.238ZM337.439 133.186C337.473 134.071 336.145 134.123 336.111 133.238L336.025 131.054C335.99 130.169 337.318 130.117 337.353 131.002L337.439 133.186L337.525 135.369C337.559 136.254 336.231 136.306 336.197 135.421L336.111 133.238C336.076 132.352 337.404 132.3 337.439 133.186ZM336.046 139.902C336.004 139.537 336.265 139.207 336.63 139.165C336.994 139.123 337.324 139.384 337.366 139.749L337.864 144.052C337.907 144.417 337.645 144.746 337.281 144.789C336.916 144.831 336.586 144.569 336.544 144.205L336.046 139.902ZM385.532 155.816C385.325 155.513 385.404 155.1 385.707 154.893C386.01 154.687 386.424 154.765 386.63 155.068L389.09 158.681C389.297 158.984 389.218 159.397 388.915 159.604C388.612 159.81 388.198 159.732 387.992 159.429L385.532 155.816ZM391.751 152.742C391.545 152.439 391.623 152.026 391.927 151.819C392.23 151.613 392.643 151.691 392.85 151.994L395.31 155.607C395.516 155.91 395.438 156.323 395.134 156.53C394.831 156.736 394.418 156.658 394.211 156.355L391.751 152.742ZM395.824 170.751C395.618 170.448 395.696 170.034 395.999 169.828C396.303 169.621 396.716 169.7 396.923 170.003L399.382 173.615C399.589 173.918 399.511 174.332 399.207 174.538C398.904 174.745 398.49 174.666 398.284 174.363L395.824 170.751ZM402.044 167.677C401.837 167.374 401.915 166.96 402.219 166.754C402.522 166.547 402.936 166.626 403.142 166.929L405.602 170.541C405.808 170.844 405.73 171.258 405.427 171.464C405.123 171.671 404.71 171.592 404.503 171.289L402.044 167.677ZM390.238 163.308C390.009 163.021 390.056 162.603 390.343 162.374C390.63 162.145 391.048 162.192 391.277 162.479L393.98 165.864C394.209 166.151 394.162 166.569 393.875 166.798C393.588 167.027 393.17 166.98 392.941 166.693L390.238 163.308ZM396.458 160.234C396.229 159.947 396.276 159.529 396.563 159.3C396.849 159.071 397.268 159.118 397.496 159.405L400.199 162.79C400.428 163.077 400.381 163.495 400.094 163.724C399.808 163.953 399.39 163.906 399.161 163.619L396.458 160.234ZM400.531 178.242C400.302 177.955 400.349 177.537 400.635 177.308C400.922 177.079 401.34 177.126 401.569 177.413L404.272 180.799C404.501 181.085 404.454 181.504 404.167 181.733C403.88 181.962 403.462 181.915 403.233 181.628L400.531 178.242ZM406.75 175.168C406.521 174.882 406.568 174.463 406.855 174.234C407.142 174.005 407.56 174.052 407.789 174.339L410.491 177.725C410.72 178.012 410.674 178.43 410.387 178.659C410.1 178.888 409.682 178.841 409.453 178.554L406.75 175.168ZM406.116 185.685C405.91 185.382 405.988 184.969 406.292 184.762C406.595 184.556 407.008 184.634 407.215 184.937L409.675 188.549C409.881 188.853 409.803 189.266 409.499 189.473C409.196 189.679 408.783 189.601 408.576 189.297L406.116 185.685ZM412.336 182.611C412.129 182.308 412.208 181.895 412.511 181.688C412.814 181.482 413.228 181.56 413.434 181.863L415.894 185.475C416.101 185.779 416.022 186.192 415.719 186.399C415.416 186.605 415.002 186.527 414.796 186.224L412.336 182.611ZM410.823 193.177C410.594 192.89 410.641 192.472 410.928 192.243C411.214 192.014 411.632 192.061 411.861 192.348L414.564 195.733C414.793 196.02 414.746 196.438 414.46 196.667C414.173 196.896 413.755 196.849 413.526 196.562L410.823 193.177ZM417.042 190.103C416.813 189.816 416.86 189.398 417.147 189.169C417.434 188.94 417.852 188.987 418.081 189.274L420.784 192.659C421.013 192.946 420.966 193.364 420.679 193.593C420.392 193.822 419.974 193.775 419.745 193.488L417.042 190.103ZM397.971 149.669C397.764 149.365 397.843 148.952 398.146 148.745C398.449 148.539 398.863 148.617 399.069 148.92L401.529 152.533C401.736 152.836 401.657 153.249 401.354 153.456C401.051 153.662 400.637 153.584 400.431 153.281L397.971 149.669ZM408.263 164.603C408.056 164.3 408.135 163.886 408.438 163.68C408.742 163.473 409.155 163.552 409.362 163.855L411.821 167.467C412.028 167.77 411.949 168.184 411.646 168.39C411.343 168.597 410.929 168.518 410.723 168.215L408.263 164.603ZM402.677 157.16C402.448 156.873 402.495 156.455 402.782 156.226C403.069 155.997 403.487 156.044 403.716 156.331L406.419 159.716C406.648 160.003 406.601 160.421 406.314 160.65C406.027 160.879 405.609 160.832 405.38 160.545L402.677 157.16ZM412.97 172.094C412.741 171.808 412.787 171.389 413.074 171.16C413.361 170.932 413.779 170.978 414.008 171.265L416.711 174.651C416.94 174.938 416.893 175.356 416.606 175.585C416.319 175.814 415.901 175.767 415.672 175.48L412.97 172.094ZM418.555 179.537C418.349 179.234 418.427 178.821 418.731 178.614C419.034 178.408 419.447 178.486 419.654 178.789L422.114 182.402C422.32 182.705 422.242 183.118 421.938 183.325C421.635 183.531 421.222 183.453 421.015 183.15L418.555 179.537ZM423.262 187.029C423.033 186.742 423.08 186.324 423.367 186.095C423.653 185.866 424.071 185.913 424.3 186.2L427.003 189.585C427.232 189.872 427.185 190.29 426.898 190.519C426.612 190.748 426.193 190.701 425.965 190.414L423.262 187.029ZM404.19 146.595C403.984 146.291 404.062 145.878 404.366 145.671C404.669 145.465 405.082 145.543 405.289 145.847L407.749 149.459C407.955 149.762 407.877 150.175 407.573 150.382C407.27 150.588 406.857 150.51 406.65 150.207L404.19 146.595ZM414.483 161.529C414.276 161.226 414.354 160.812 414.658 160.606C414.961 160.399 415.374 160.478 415.581 160.781L418.041 164.393C418.247 164.696 418.169 165.11 417.866 165.316C417.562 165.523 417.149 165.445 416.942 165.141L414.483 161.529ZM408.897 154.086C408.668 153.799 408.715 153.381 409.002 153.152C409.288 152.923 409.706 152.97 409.935 153.257L412.638 156.642C412.867 156.929 412.82 157.347 412.533 157.576C412.247 157.805 411.829 157.758 411.6 157.471L408.897 154.086ZM419.189 169.02C418.96 168.734 419.007 168.316 419.294 168.087C419.581 167.858 419.999 167.904 420.228 168.191L422.93 171.577C423.159 171.864 423.112 172.282 422.826 172.511C422.539 172.74 422.121 172.693 421.892 172.406L419.189 169.02ZM424.775 176.464C424.568 176.16 424.647 175.747 424.95 175.54C425.253 175.334 425.667 175.412 425.873 175.715L428.333 179.328C428.54 179.631 428.461 180.044 428.158 180.251C427.854 180.457 427.441 180.379 427.235 180.076L424.775 176.464ZM429.481 183.955C429.252 183.668 429.299 183.25 429.586 183.021C429.873 182.792 430.291 182.839 430.52 183.126L433.223 186.511C433.452 186.798 433.405 187.216 433.118 187.445C432.831 187.674 432.413 187.627 432.184 187.34L429.481 183.955ZM410.41 143.521C410.203 143.217 410.282 142.804 410.585 142.597C410.888 142.391 411.302 142.469 411.508 142.773L413.968 146.385C414.175 146.688 414.096 147.101 413.793 147.308C413.489 147.515 413.076 147.436 412.87 147.133L410.41 143.521ZM420.702 158.455C420.495 158.152 420.574 157.738 420.877 157.532C421.181 157.325 421.594 157.404 421.801 157.707L424.26 161.319C424.467 161.623 424.388 162.036 424.085 162.242C423.782 162.449 423.368 162.371 423.162 162.067L420.702 158.455ZM415.116 151.012C414.887 150.725 414.934 150.307 415.221 150.078C415.508 149.849 415.926 149.896 416.155 150.183L418.858 153.568C419.087 153.855 419.04 154.273 418.753 154.502C418.466 154.731 418.048 154.684 417.819 154.398L415.116 151.012ZM425.408 165.946C425.18 165.66 425.226 165.242 425.513 165.013C425.8 164.784 426.218 164.831 426.447 165.117L429.15 168.503C429.379 168.79 429.332 169.208 429.045 169.437C428.758 169.666 428.34 169.619 428.111 169.332L425.408 165.946ZM430.994 173.39C430.788 173.086 430.866 172.673 431.169 172.466C431.473 172.26 431.886 172.338 432.093 172.642L434.552 176.254C434.759 176.557 434.681 176.97 434.377 177.177C434.074 177.383 433.661 177.305 433.454 177.002L430.994 173.39ZM435.701 180.881C435.472 180.594 435.519 180.176 435.805 179.947C436.092 179.718 436.51 179.765 436.739 180.052L439.442 183.437C439.671 183.724 439.624 184.142 439.337 184.371C439.051 184.6 438.632 184.553 438.403 184.266L435.701 180.881ZM416.629 140.447C416.423 140.143 416.501 139.73 416.804 139.523C417.108 139.317 417.521 139.395 417.728 139.699L420.188 143.311C420.394 143.614 420.316 144.027 420.012 144.234C419.709 144.441 419.296 144.362 419.089 144.059L416.629 140.447ZM426.921 155.381C426.715 155.078 426.793 154.664 427.097 154.458C427.4 154.251 427.813 154.33 428.02 154.633L430.48 158.245C430.686 158.549 430.608 158.962 430.305 159.168C430.001 159.375 429.588 159.297 429.381 158.993L426.921 155.381ZM421.336 147.938C421.107 147.651 421.154 147.233 421.44 147.004C421.727 146.775 422.145 146.822 422.374 147.109L425.077 150.494C425.306 150.781 425.259 151.199 424.972 151.428C424.686 151.657 424.267 151.61 424.038 151.324L421.336 147.938ZM431.628 162.873C431.399 162.586 431.446 162.168 431.733 161.939C432.019 161.71 432.438 161.757 432.667 162.043L435.369 165.429C435.598 165.716 435.551 166.134 435.265 166.363C434.978 166.592 434.56 166.545 434.331 166.258L431.628 162.873ZM437.214 170.316C437.007 170.012 437.086 169.599 437.389 169.392C437.692 169.186 438.106 169.264 438.312 169.568L440.772 173.18C440.979 173.483 440.9 173.896 440.597 174.103C440.293 174.31 439.88 174.231 439.673 173.928L437.214 170.316ZM441.92 177.807C441.691 177.52 441.738 177.102 442.025 176.873C442.312 176.644 442.73 176.691 442.959 176.978L445.662 180.363C445.891 180.65 445.844 181.068 445.557 181.297C445.27 181.526 444.852 181.479 444.623 181.193L441.92 177.807ZM433.141 152.307C432.934 152.004 433.013 151.59 433.316 151.384C433.62 151.177 434.033 151.256 434.239 151.559L436.699 155.171C436.906 155.475 436.827 155.888 436.524 156.095C436.221 156.301 435.807 156.223 435.601 155.919L433.141 152.307ZM427.555 144.864C427.326 144.577 427.373 144.159 427.66 143.93C427.947 143.701 428.365 143.748 428.594 144.035L431.297 147.42C431.526 147.707 431.479 148.125 431.192 148.354C430.905 148.583 430.487 148.536 430.258 148.25L427.555 144.864ZM437.847 159.799C437.618 159.512 437.665 159.094 437.952 158.865C438.239 158.636 438.657 158.683 438.886 158.969L441.589 162.355C441.818 162.642 441.771 163.06 441.484 163.289C441.197 163.518 440.779 163.471 440.55 163.184L437.847 159.799ZM424.079 139.179L425.177 138.431L424.079 139.179ZM424.079 139.179L422.849 137.373C422.35 136.64 423.449 135.892 423.947 136.625L425.177 138.431L426.407 140.237C426.906 140.969 425.807 141.717 425.308 140.985L424.079 139.179ZM444.663 169.048L445.762 168.3L444.663 169.048ZM445.762 168.3C446.26 169.032 445.162 169.78 444.663 169.048L443.433 167.242C442.934 166.509 444.033 165.761 444.532 166.494L445.762 168.3L446.991 170.106C447.49 170.838 446.392 171.586 445.893 170.854L444.663 169.048C444.164 168.315 445.263 167.567 445.762 168.3ZM448.14 174.733C447.911 174.446 447.958 174.028 448.244 173.799C448.531 173.57 448.949 173.617 449.178 173.904L451.881 177.289C452.11 177.576 452.063 177.994 451.776 178.223C451.489 178.452 451.071 178.405 450.842 178.119L448.14 174.733ZM415.842 201.185C415.647 200.874 415.739 200.464 416.05 200.268C416.36 200.072 416.77 200.165 416.966 200.476L419.299 204.171C419.494 204.482 419.402 204.892 419.091 205.088C418.781 205.284 418.37 205.191 418.175 204.881L415.842 201.185ZM422.165 198.33C421.969 198.019 422.062 197.609 422.373 197.413C422.683 197.217 423.093 197.31 423.289 197.621L425.621 201.316C425.817 201.627 425.724 202.037 425.414 202.233C425.104 202.429 424.693 202.336 424.498 202.026L422.165 198.33ZM425.607 216.469C425.411 216.159 425.504 215.749 425.814 215.553C426.125 215.357 426.535 215.45 426.731 215.76L429.063 219.456C429.259 219.766 429.166 220.177 428.856 220.373C428.546 220.568 428.135 220.476 427.939 220.165L425.607 216.469ZM431.93 213.614C431.734 213.304 431.827 212.894 432.137 212.698C432.448 212.502 432.858 212.595 433.054 212.905L435.386 216.601C435.582 216.911 435.489 217.322 435.179 217.517C434.869 217.713 434.458 217.621 434.262 217.31L431.93 213.614ZM420.285 208.836C420.066 208.541 420.127 208.125 420.422 207.906C420.716 207.687 421.133 207.749 421.351 208.044L423.934 211.521C424.153 211.816 424.092 212.232 423.797 212.451C423.503 212.67 423.086 212.608 422.867 212.314L420.285 208.836ZM426.607 205.981C426.389 205.686 426.45 205.27 426.745 205.051C427.039 204.832 427.456 204.894 427.674 205.189L430.257 208.666C430.476 208.961 430.415 209.377 430.12 209.596C429.825 209.815 429.409 209.753 429.19 209.459L426.607 205.981ZM430.049 224.121C429.83 223.826 429.892 223.41 430.187 223.191C430.481 222.972 430.897 223.033 431.116 223.328L433.699 226.806C433.918 227.101 433.857 227.517 433.562 227.736C433.267 227.954 432.851 227.893 432.632 227.598L430.049 224.121ZM436.372 221.265C436.153 220.971 436.215 220.555 436.509 220.336C436.804 220.117 437.22 220.178 437.439 220.473L440.022 223.951C440.241 224.245 440.179 224.662 439.885 224.881C439.59 225.099 439.174 225.038 438.955 224.743L436.372 221.265ZM435.372 231.754C435.176 231.444 435.269 231.033 435.579 230.837C435.89 230.642 436.3 230.734 436.496 231.045L438.828 234.74C439.024 235.051 438.931 235.461 438.621 235.657C438.31 235.853 437.9 235.76 437.704 235.45L435.372 231.754ZM441.695 228.899C441.499 228.589 441.592 228.178 441.902 227.982C442.213 227.787 442.623 227.879 442.819 228.19L445.151 231.885C445.347 232.196 445.254 232.606 444.944 232.802C444.633 232.998 444.223 232.905 444.027 232.595L441.695 228.899ZM439.814 239.405C439.595 239.11 439.657 238.694 439.951 238.475C440.246 238.257 440.662 238.318 440.881 238.613L443.464 242.09C443.683 242.385 443.621 242.801 443.327 243.02C443.032 243.239 442.616 243.177 442.397 242.883L439.814 239.405ZM446.137 236.55C445.918 236.255 445.98 235.839 446.274 235.62C446.569 235.402 446.985 235.463 447.204 235.758L449.787 239.235C450.006 239.53 449.944 239.946 449.65 240.165C449.355 240.384 448.939 240.322 448.72 240.028L446.137 236.55ZM428.488 195.475C428.292 195.164 428.385 194.754 428.696 194.558C429.006 194.362 429.416 194.455 429.612 194.766L431.944 198.461C432.14 198.772 432.047 199.182 431.737 199.378C431.427 199.574 431.016 199.481 430.821 199.171L428.488 195.475ZM438.253 210.759C438.057 210.449 438.15 210.039 438.46 209.843C438.771 209.647 439.181 209.74 439.377 210.05L441.709 213.746C441.905 214.056 441.812 214.467 441.502 214.662C441.191 214.858 440.781 214.765 440.585 214.455L438.253 210.759ZM432.93 203.126C432.712 202.831 432.773 202.415 433.068 202.196C433.362 201.977 433.779 202.039 433.997 202.333L436.58 205.811C436.799 206.106 436.738 206.522 436.443 206.741C436.148 206.96 435.732 206.898 435.513 206.604L432.93 203.126ZM442.695 218.41C442.476 218.116 442.538 217.7 442.832 217.481C443.127 217.262 443.543 217.323 443.762 217.618L446.345 221.096C446.564 221.39 446.502 221.807 446.208 222.026C445.913 222.244 445.497 222.183 445.278 221.888L442.695 218.41ZM448.018 226.044C447.822 225.734 447.915 225.323 448.225 225.127C448.536 224.931 448.946 225.024 449.142 225.335L451.474 229.03C451.67 229.341 451.577 229.751 451.267 229.947C450.956 230.143 450.546 230.05 450.35 229.74L448.018 226.044ZM452.46 233.695C452.241 233.4 452.303 232.984 452.597 232.765C452.892 232.547 453.308 232.608 453.527 232.903L456.11 236.38C456.329 236.675 456.267 237.091 455.973 237.31C455.678 237.529 455.262 237.467 455.043 237.173L452.46 233.695ZM434.811 192.62C434.615 192.309 434.708 191.899 435.019 191.703C435.329 191.507 435.739 191.6 435.935 191.911L438.267 195.606C438.463 195.917 438.37 196.327 438.06 196.523C437.75 196.719 437.339 196.626 437.143 196.316L434.811 192.62ZM444.576 207.904C444.38 207.594 444.473 207.184 444.783 206.988C445.094 206.792 445.504 206.885 445.7 207.195L448.032 210.891C448.228 211.201 448.135 211.612 447.825 211.807C447.514 212.003 447.104 211.91 446.908 211.6L444.576 207.904ZM439.253 200.271C439.035 199.976 439.096 199.56 439.391 199.341C439.685 199.122 440.102 199.184 440.32 199.478L442.903 202.956C443.122 203.251 443.061 203.667 442.766 203.886C442.471 204.105 442.055 204.043 441.836 203.749L439.253 200.271ZM449.018 215.555C448.799 215.261 448.861 214.845 449.155 214.626C449.45 214.407 449.866 214.468 450.085 214.763L452.668 218.241C452.887 218.535 452.825 218.952 452.531 219.17C452.236 219.389 451.82 219.328 451.601 219.033L449.018 215.555ZM454.341 223.189C454.145 222.879 454.238 222.468 454.548 222.272C454.858 222.076 455.269 222.169 455.465 222.48L457.797 226.175C457.993 226.486 457.9 226.896 457.59 227.092C457.279 227.288 456.869 227.195 456.673 226.885L454.341 223.189ZM458.783 230.84C458.564 230.545 458.626 230.129 458.92 229.91C459.215 229.692 459.631 229.753 459.85 230.048L462.433 233.525C462.652 233.82 462.59 234.236 462.296 234.455C462.001 234.674 461.585 234.612 461.366 234.318L458.783 230.84ZM441.134 189.765C440.938 189.454 441.031 189.044 441.342 188.848C441.652 188.652 442.062 188.745 442.258 189.056L444.59 192.751C444.786 193.062 444.693 193.472 444.383 193.668C444.073 193.864 443.662 193.771 443.466 193.461L441.134 189.765ZM450.899 205.049C450.703 204.739 450.796 204.329 451.106 204.133C451.417 203.937 451.827 204.03 452.023 204.34L454.355 208.036C454.551 208.346 454.458 208.757 454.148 208.952C453.837 209.148 453.427 209.055 453.231 208.745L450.899 205.049ZM445.576 197.416C445.358 197.121 445.419 196.705 445.714 196.486C446.008 196.267 446.424 196.329 446.643 196.623L449.226 200.101C449.445 200.396 449.384 200.812 449.089 201.031C448.794 201.25 448.378 201.188 448.159 200.894L445.576 197.416ZM455.341 212.7C455.122 212.406 455.184 211.99 455.478 211.771C455.773 211.552 456.189 211.613 456.408 211.908L458.991 215.386C459.21 215.68 459.148 216.097 458.854 216.315C458.559 216.534 458.143 216.473 457.924 216.178L455.341 212.7ZM460.664 220.334C460.468 220.024 460.561 219.613 460.871 219.417C461.181 219.221 461.592 219.314 461.788 219.625L464.12 223.32C464.316 223.631 464.223 224.041 463.913 224.237C463.602 224.433 463.192 224.34 462.996 224.03L460.664 220.334ZM465.106 227.985C464.887 227.69 464.948 227.274 465.243 227.055C465.538 226.836 465.954 226.898 466.173 227.193L468.756 230.67C468.975 230.965 468.913 231.381 468.618 231.6C468.324 231.819 467.908 231.757 467.689 231.463L465.106 227.985ZM447.457 186.91C447.261 186.599 447.354 186.189 447.665 185.993C447.975 185.797 448.385 185.89 448.581 186.2L450.913 189.896C451.109 190.207 451.016 190.617 450.706 190.813C450.396 191.009 449.985 190.916 449.789 190.605L447.457 186.91ZM457.222 202.194C457.026 201.884 457.119 201.474 457.429 201.278C457.74 201.082 458.15 201.175 458.346 201.485L460.678 205.181C460.874 205.491 460.781 205.902 460.471 206.097C460.16 206.293 459.75 206.2 459.554 205.89L457.222 202.194ZM451.899 194.561C451.681 194.266 451.742 193.85 452.037 193.631C452.331 193.412 452.747 193.474 452.966 193.768L455.549 197.246C455.768 197.541 455.707 197.957 455.412 198.176C455.117 198.395 454.701 198.333 454.482 198.039L451.899 194.561ZM461.664 209.845C461.445 209.551 461.507 209.135 461.801 208.916C462.096 208.697 462.512 208.758 462.731 209.053L465.314 212.531C465.533 212.825 465.471 213.242 465.177 213.46C464.882 213.679 464.466 213.618 464.247 213.323L461.664 209.845ZM466.987 217.479C466.791 217.169 466.884 216.758 467.194 216.562C467.504 216.366 467.915 216.459 468.111 216.77L470.443 220.465C470.639 220.776 470.546 221.186 470.235 221.382C469.925 221.578 469.515 221.485 469.319 221.175L466.987 217.479ZM471.429 225.13C471.21 224.835 471.271 224.419 471.566 224.2C471.861 223.981 472.277 224.043 472.496 224.338L475.079 227.815C475.298 228.11 475.236 228.526 474.941 228.745C474.647 228.964 474.231 228.902 474.012 228.608L471.429 225.13ZM463.545 199.339C463.349 199.029 463.442 198.619 463.752 198.423C464.063 198.227 464.473 198.32 464.669 198.63L467.001 202.326C467.197 202.636 467.104 203.047 466.794 203.242C466.483 203.438 466.073 203.345 465.877 203.035L463.545 199.339ZM458.222 191.706C458.003 191.411 458.065 190.995 458.36 190.776C458.654 190.557 459.07 190.619 459.289 190.913L461.872 194.391C462.091 194.686 462.03 195.102 461.735 195.321C461.44 195.54 461.024 195.478 460.805 195.184L458.222 191.706ZM467.987 206.99C467.768 206.696 467.83 206.28 468.124 206.061C468.419 205.842 468.835 205.903 469.054 206.198L471.637 209.676C471.856 209.97 471.794 210.387 471.5 210.605C471.205 210.824 470.789 210.763 470.57 210.468L467.987 206.99ZM454.946 185.903L456.07 185.193L454.946 185.903ZM454.946 185.903L453.78 184.055C453.307 183.305 454.431 182.596 454.904 183.345L456.07 185.193L457.236 187.041C457.709 187.791 456.585 188.5 456.112 187.75L454.946 185.903ZM474.476 216.472L475.6 215.762L474.476 216.472ZM475.6 215.762C476.073 216.512 474.949 217.221 474.476 216.472L473.31 214.624C472.837 213.875 473.961 213.165 474.434 213.915L475.6 215.762L476.766 217.61C477.239 218.36 476.115 219.069 475.642 218.32L474.476 216.472C474.003 215.722 475.127 215.013 475.6 215.762ZM477.752 222.275C477.533 221.98 477.594 221.564 477.889 221.345C478.184 221.126 478.6 221.188 478.819 221.483L481.402 224.96C481.62 225.255 481.559 225.671 481.264 225.89C480.97 226.109 480.554 226.047 480.335 225.753L477.752 222.275ZM223.086 110.462C222.731 110.369 222.519 110.005 222.613 109.65C222.706 109.295 223.07 109.083 223.424 109.177L227.651 110.289C228.006 110.383 228.218 110.746 228.124 111.101C228.031 111.456 227.667 111.668 227.312 111.574L223.086 110.462ZM225.763 104.062C225.408 103.968 225.196 103.605 225.29 103.25C225.383 102.895 225.747 102.683 226.102 102.777L230.328 103.889C230.683 103.982 230.895 104.346 230.801 104.701C230.708 105.056 230.344 105.268 229.99 105.174L225.763 104.062ZM240.652 114.981C240.297 114.888 240.085 114.524 240.178 114.169C240.272 113.814 240.635 113.602 240.99 113.696L245.216 114.808C245.571 114.902 245.783 115.265 245.69 115.62C245.596 115.975 245.233 116.187 244.878 116.093L240.652 114.981ZM243.329 108.581C242.974 108.487 242.762 108.124 242.855 107.769C242.949 107.414 243.312 107.202 243.667 107.295L247.893 108.408C248.248 108.501 248.46 108.865 248.367 109.22C248.273 109.574 247.91 109.786 247.555 109.693L243.329 108.581ZM231.553 113.028C231.192 112.962 230.953 112.616 231.019 112.255C231.086 111.894 231.432 111.655 231.793 111.721L236.054 112.503C236.415 112.569 236.654 112.916 236.587 113.276C236.521 113.637 236.175 113.876 235.814 113.81L231.553 113.028ZM234.23 106.628C233.869 106.562 233.63 106.215 233.697 105.854C233.763 105.493 234.109 105.255 234.47 105.321L238.731 106.103C239.092 106.169 239.331 106.515 239.265 106.876C239.198 107.237 238.852 107.476 238.491 107.41L234.23 106.628ZM249.119 117.547C248.758 117.481 248.519 117.135 248.585 116.774C248.651 116.413 248.997 116.174 249.358 116.24L253.619 117.022C253.98 117.088 254.219 117.434 254.153 117.795C254.087 118.156 253.74 118.395 253.379 118.329L249.119 117.547ZM251.796 111.147C251.435 111.081 251.196 110.734 251.262 110.373C251.328 110.012 251.675 109.773 252.036 109.84L256.296 110.622C256.657 110.688 256.896 111.034 256.83 111.395C256.764 111.756 256.418 111.995 256.057 111.929L251.796 111.147ZM258.217 119.5C257.862 119.406 257.65 119.043 257.744 118.688C257.837 118.333 258.201 118.121 258.556 118.215L262.782 119.327C263.137 119.42 263.349 119.784 263.255 120.139C263.162 120.494 262.798 120.706 262.443 120.612L258.217 119.5ZM260.894 113.1C260.54 113.006 260.328 112.643 260.421 112.288C260.514 111.933 260.878 111.721 261.233 111.814L265.459 112.927C265.814 113.02 266.026 113.384 265.932 113.738C265.839 114.093 265.476 114.305 265.121 114.212L260.894 113.1ZM266.684 122.066C266.323 122 266.084 121.653 266.15 121.292C266.217 120.931 266.563 120.693 266.924 120.759L271.185 121.541C271.546 121.607 271.785 121.953 271.718 122.314C271.652 122.675 271.306 122.914 270.945 122.848L266.684 122.066ZM269.361 115.666C269 115.599 268.761 115.253 268.828 114.892C268.894 114.531 269.24 114.292 269.601 114.359L273.862 115.14C274.223 115.207 274.462 115.553 274.396 115.914C274.329 116.275 273.983 116.514 273.622 116.448L269.361 115.666ZM228.441 97.6616C228.086 97.5681 227.874 97.2047 227.967 96.8498C228.061 96.4949 228.424 96.2829 228.779 96.3763L233.005 97.4887C233.36 97.5821 233.572 97.9455 233.478 98.3004C233.385 98.6553 233.022 98.8673 232.667 98.7739L228.441 97.6616ZM246.006 102.18C245.651 102.087 245.439 101.724 245.533 101.369C245.626 101.014 245.989 100.802 246.344 100.895L250.571 102.008C250.925 102.101 251.137 102.464 251.044 102.819C250.951 103.174 250.587 103.386 250.232 103.293L246.006 102.18ZM236.907 100.228C236.546 100.161 236.307 99.8151 236.374 99.4541C236.44 99.0932 236.786 98.8542 237.147 98.9205L241.408 99.7024C241.769 99.7687 242.008 100.115 241.942 100.476C241.876 100.837 241.529 101.076 241.168 101.01L236.907 100.228ZM254.473 104.747C254.112 104.68 253.873 104.334 253.939 103.973C254.005 103.612 254.352 103.373 254.713 103.439L258.974 104.221C259.335 104.288 259.574 104.634 259.507 104.995C259.441 105.356 259.095 105.595 258.734 105.528L254.473 104.747ZM263.572 106.699C263.217 106.606 263.005 106.242 263.098 105.888C263.192 105.533 263.555 105.321 263.91 105.414L268.136 106.526C268.491 106.62 268.703 106.983 268.61 107.338C268.516 107.693 268.153 107.905 267.798 107.812L263.572 106.699ZM272.038 109.265C271.677 109.199 271.439 108.853 271.505 108.492C271.571 108.131 271.917 107.892 272.278 107.958L276.539 108.74C276.9 108.806 277.139 109.153 277.073 109.514C277.007 109.875 276.66 110.114 276.299 110.047L272.038 109.265ZM231.118 91.2613C230.763 91.1679 230.551 90.8044 230.644 90.4495C230.738 90.0946 231.101 89.8826 231.456 89.976L235.682 91.0884C236.037 91.1818 236.249 91.5453 236.156 91.9002C236.062 92.2551 235.699 92.4671 235.344 92.3736L231.118 91.2613ZM248.683 95.7802C248.328 95.6868 248.116 95.3233 248.21 94.9684C248.303 94.6135 248.667 94.4015 249.022 94.4949L253.248 95.6073C253.603 95.7007 253.815 96.0641 253.721 96.419C253.628 96.774 253.264 96.9859 252.909 96.8925L248.683 95.7802ZM239.585 93.8274C239.224 93.7612 238.985 93.4148 239.051 93.0539C239.117 92.6929 239.463 92.454 239.824 92.5202L244.085 93.3021C244.446 93.3684 244.685 93.7147 244.619 94.0757C244.553 94.4366 244.206 94.6756 243.845 94.6093L239.585 93.8274ZM257.15 98.3463C256.789 98.28 256.55 97.9337 256.616 97.5727C256.683 97.2118 257.029 96.9729 257.39 97.0391L261.651 97.821C262.012 97.8873 262.251 98.2336 262.185 98.5945C262.118 98.9555 261.772 99.1944 261.411 99.1282L257.15 98.3463ZM266.249 100.299C265.894 100.206 265.682 99.8422 265.775 99.4873C265.869 99.1324 266.232 98.9204 266.587 99.0138L270.813 100.126C271.168 100.22 271.38 100.583 271.287 100.938C271.193 101.293 270.83 101.505 270.475 101.411L266.249 100.299ZM274.716 102.865C274.355 102.799 274.116 102.453 274.182 102.092C274.248 101.731 274.595 101.492 274.956 101.558L279.216 102.34C279.577 102.406 279.816 102.752 279.75 103.113C279.684 103.474 279.338 103.713 278.977 103.647L274.716 102.865ZM233.795 84.861C233.44 84.7676 233.228 84.4042 233.321 84.0492C233.415 83.6943 233.778 83.4824 234.133 83.5758L238.359 84.6881C238.714 84.7815 238.926 85.145 238.833 85.4999C238.739 85.8548 238.376 86.0668 238.021 85.9734L233.795 84.861ZM251.36 89.3799C251.006 89.2865 250.794 88.923 250.887 88.5681C250.98 88.2132 251.344 88.0012 251.699 88.0946L255.925 89.207C256.28 89.3004 256.492 89.6639 256.398 90.0188C256.305 90.3737 255.942 90.5857 255.587 90.4923L251.36 89.3799ZM242.262 87.4271C241.901 87.3609 241.662 87.0146 241.728 86.6536C241.794 86.2926 242.141 86.0537 242.502 86.1199L246.763 86.9019C247.124 86.9681 247.362 87.3144 247.296 87.6754C247.23 88.0364 246.884 88.2753 246.523 88.209L242.262 87.4271ZM259.827 91.946C259.466 91.8798 259.227 91.5334 259.294 91.1725C259.36 90.8115 259.706 90.5726 260.067 90.6388L264.328 91.4207C264.689 91.487 264.928 91.8333 264.862 92.1943C264.795 92.5552 264.449 92.7942 264.088 92.7279L259.827 91.946ZM268.926 93.8988C268.571 93.8053 268.359 93.4419 268.453 93.087C268.546 92.7321 268.909 92.5201 269.264 92.6135L273.49 93.7259C273.845 93.8193 274.057 94.1827 273.964 94.5376C273.871 94.8925 273.507 95.1045 273.152 95.0111L268.926 93.8988ZM277.393 96.4649C277.032 96.3986 276.793 96.0523 276.859 95.6913C276.925 95.3304 277.272 95.0914 277.633 95.1577L281.894 95.9396C282.255 96.0059 282.494 96.3522 282.427 96.7132C282.361 97.0741 282.015 97.313 281.654 97.2468L277.393 96.4649ZM236.472 78.4607C236.117 78.3673 235.905 78.0039 235.999 77.649C236.092 77.2941 236.456 77.0821 236.81 77.1755L241.037 78.2878C241.392 78.3813 241.603 78.7447 241.51 79.0996C241.417 79.4545 241.053 79.6665 240.698 79.5731L236.472 78.4607ZM254.038 82.9796C253.683 82.8862 253.471 82.5228 253.564 82.1678C253.658 81.8129 254.021 81.6009 254.376 81.6944L258.602 82.8067C258.957 82.9001 259.169 83.2636 259.076 83.6185C258.982 83.9734 258.619 84.1854 258.264 84.092L254.038 82.9796ZM244.939 81.0269C244.578 80.9606 244.339 80.6143 244.405 80.2533C244.472 79.8923 244.818 79.6534 245.179 79.7197L249.44 80.5016C249.801 80.5678 250.04 80.9141 249.973 81.2751C249.907 81.6361 249.561 81.875 249.2 81.8088L244.939 81.0269ZM262.504 85.5457C262.144 85.4795 261.905 85.1332 261.971 84.7722C262.037 84.4112 262.383 84.1723 262.744 84.2385L267.005 85.0205C267.366 85.0867 267.605 85.433 267.539 85.794C267.473 86.155 267.126 86.3939 266.765 86.3276L262.504 85.5457ZM271.603 87.4985C271.248 87.4051 271.036 87.0416 271.13 86.6867C271.223 86.3318 271.587 86.1198 271.941 86.2132L276.168 87.3256C276.523 87.419 276.735 87.7824 276.641 88.1374C276.548 88.4923 276.184 88.7043 275.829 88.6108L271.603 87.4985ZM280.07 90.0646C279.709 89.9984 279.47 89.652 279.536 89.2911C279.603 88.9301 279.949 88.6912 280.31 88.7574L284.571 89.5393C284.932 89.6056 285.171 89.9519 285.104 90.3129C285.038 90.6738 284.692 90.9127 284.331 90.8465L280.07 90.0646ZM256.715 76.5793C256.36 76.4859 256.148 76.1225 256.241 75.7676C256.335 75.4127 256.698 75.2007 257.053 75.2941L261.279 76.4064C261.634 76.4999 261.846 76.8633 261.753 77.2182C261.659 77.5731 261.296 77.7851 260.941 77.6917L256.715 76.5793ZM247.616 74.6266C247.255 74.5603 247.016 74.214 247.082 73.853C247.149 73.4921 247.495 73.2531 247.856 73.3194L252.117 74.1013C252.478 74.1675 252.717 74.5139 252.651 74.8748C252.584 75.2358 252.238 75.4747 251.877 75.4085L247.616 74.6266ZM265.182 79.1454C264.821 79.0792 264.582 78.7329 264.648 78.3719C264.714 78.0109 265.061 77.772 265.422 77.8383L269.682 78.6202C270.043 78.6864 270.282 79.0327 270.216 79.3937C270.15 79.7547 269.804 79.9936 269.443 79.9274L265.182 79.1454ZM241.262 72.6166L241.601 71.3314L241.262 72.6166ZM241.262 72.6166L239.149 72.0604C238.293 71.8349 238.631 70.5497 239.488 70.7752L241.601 71.3314L243.714 71.8876C244.571 72.1131 244.232 73.3983 243.376 73.1728L241.262 72.6166ZM276.394 81.6544L276.732 80.3691L276.394 81.6544ZM276.732 80.3691C277.589 80.5947 277.25 81.8799 276.394 81.6544L274.28 81.0982C273.424 80.8727 273.762 79.5874 274.619 79.813L276.732 80.3691L278.845 80.9253C279.702 81.1509 279.363 82.4361 278.507 82.2106L276.394 81.6544C275.537 81.4289 275.875 80.1436 276.732 80.3691ZM282.747 83.6643C282.386 83.5981 282.147 83.2518 282.214 82.8908C282.28 82.5298 282.626 82.2909 282.987 82.3571L287.248 83.1391C287.609 83.2053 287.848 83.5516 287.782 83.9126C287.715 84.2735 287.369 84.5125 287.008 84.4462L282.747 83.6643ZM158.652 97.9534C158.294 97.8725 158.069 97.5166 158.15 97.1587C158.231 96.8008 158.587 96.5762 158.945 96.6572L163.207 97.6214C163.565 97.7023 163.79 98.0582 163.709 98.4161C163.628 98.7741 163.272 98.9986 162.914 98.9176L158.652 97.9534ZM161.104 91.4636C160.746 91.3827 160.521 91.0269 160.602 90.6689C160.683 90.3109 161.039 90.0864 161.397 90.1674L165.659 91.1316C166.017 91.2125 166.242 91.5683 166.161 91.9263C166.08 92.2842 165.724 92.5088 165.366 92.4278L161.104 91.4636ZM176.364 101.857C176.006 101.776 175.782 101.42 175.863 101.062C175.944 100.704 176.299 100.479 176.657 100.56L180.92 101.524C181.278 101.605 181.502 101.961 181.421 102.319C181.34 102.677 180.985 102.902 180.627 102.821L176.364 101.857ZM178.816 95.3667C178.458 95.2858 178.234 94.9299 178.315 94.572C178.396 94.214 178.752 93.9895 179.11 94.0705L183.372 95.0347C183.73 95.1156 183.954 95.4714 183.873 95.8294C183.793 96.1873 183.437 96.4119 183.079 96.3309L178.816 95.3667ZM167.203 100.223C166.84 100.169 166.589 99.8311 166.642 99.4681C166.696 99.105 167.034 98.8542 167.397 98.9078L171.683 99.5405C172.046 99.5941 172.296 99.9319 172.243 100.295C172.189 100.658 171.851 100.909 171.488 100.855L167.203 100.223ZM169.655 93.7327C169.292 93.6791 169.041 93.3413 169.095 92.9783C169.148 92.6152 169.486 92.3643 169.849 92.4179L174.135 93.0507C174.498 93.1043 174.749 93.4421 174.695 93.8051C174.641 94.1682 174.304 94.4191 173.941 94.3654L169.655 93.7327ZM184.915 104.126C184.552 104.072 184.301 103.734 184.355 103.371C184.409 103.008 184.746 102.757 185.109 102.811L189.395 103.444C189.758 103.497 190.009 103.835 189.955 104.198C189.902 104.561 189.564 104.812 189.201 104.758L184.915 104.126ZM187.368 97.6358C187.004 97.5822 186.754 97.2444 186.807 96.8814C186.861 96.5183 187.199 96.2674 187.562 96.321L191.847 96.9538C192.21 97.0074 192.461 97.3452 192.408 97.7082C192.354 98.0713 192.016 98.3221 191.653 98.2685L187.368 97.6358ZM194.077 105.76C193.719 105.679 193.494 105.323 193.575 104.965C193.656 104.607 194.012 104.382 194.37 104.463L198.632 105.428C198.99 105.509 199.215 105.864 199.134 106.222C199.053 106.58 198.697 106.805 198.339 106.724L194.077 105.76ZM196.529 99.2698C196.171 99.1889 195.946 98.833 196.027 98.4751C196.108 98.1171 196.464 97.8926 196.822 97.9736L201.085 98.9377C201.442 99.0187 201.667 99.3745 201.586 99.7325C201.505 100.09 201.149 100.315 200.791 100.234L196.529 99.2698ZM202.628 108.029C202.265 107.975 202.014 107.637 202.068 107.274C202.121 106.911 202.459 106.66 202.822 106.714L207.108 107.347C207.471 107.4 207.722 107.738 207.668 108.101C207.614 108.464 207.277 108.715 206.913 108.661L202.628 108.029ZM205.08 101.539C204.717 101.485 204.466 101.148 204.52 100.784C204.573 100.421 204.911 100.171 205.274 100.224L209.56 100.857C209.923 100.91 210.174 101.248 210.12 101.611C210.067 101.974 209.729 102.225 209.366 102.172L205.08 101.539ZM163.556 84.9738C163.198 84.8929 162.974 84.537 163.054 84.1791C163.135 83.8211 163.491 83.5966 163.849 83.6776L168.112 84.6417C168.47 84.7227 168.694 85.0785 168.613 85.4365C168.532 85.7944 168.176 86.019 167.818 85.938L163.556 84.9738ZM181.269 88.8769C180.911 88.7959 180.686 88.4401 180.767 88.0822C180.848 87.7242 181.204 87.4997 181.562 87.5807L185.824 88.5448C186.182 88.6258 186.407 88.9816 186.326 89.3396C186.245 89.6975 185.889 89.9221 185.531 89.8411L181.269 88.8769ZM172.107 87.2429C171.744 87.1893 171.493 86.8515 171.547 86.4884C171.6 86.1254 171.938 85.8745 172.301 85.9281L176.587 86.5609C176.95 86.6145 177.201 86.9522 177.147 87.3153C177.094 87.6784 176.756 87.9292 176.393 87.8756L172.107 87.2429ZM189.82 91.146C189.457 91.0924 189.206 90.7546 189.259 90.3915C189.313 90.0285 189.651 89.7776 190.014 89.8312L194.299 90.464C194.663 90.5176 194.913 90.8553 194.86 91.2184C194.806 91.5815 194.468 91.8323 194.105 91.7787L189.82 91.146ZM198.981 92.78C198.623 92.699 198.399 92.3432 198.48 91.9853C198.561 91.6273 198.916 91.4028 199.274 91.4838L203.537 92.4479C203.895 92.5289 204.119 92.8847 204.038 93.2427C203.957 93.6006 203.601 93.8252 203.243 93.7442L198.981 92.78ZM207.532 95.0491C207.169 94.9955 206.918 94.6577 206.972 94.2946C207.026 93.9316 207.363 93.6807 207.726 93.7343L212.012 94.3671C212.375 94.4207 212.626 94.7584 212.572 95.1215C212.519 95.4846 212.181 95.7354 211.818 95.6818L207.532 95.0491ZM166.008 78.484C165.65 78.403 165.426 78.0472 165.507 77.6893C165.588 77.3313 165.943 77.1068 166.301 77.1877L170.564 78.1519C170.922 78.2329 171.146 78.5887 171.065 78.9467C170.984 79.3046 170.629 79.5292 170.271 79.4482L166.008 78.484ZM183.721 82.3871C183.363 82.3061 183.138 81.9503 183.219 81.5924C183.3 81.2344 183.656 81.0099 184.014 81.0908L188.276 82.055C188.634 82.136 188.859 82.4918 188.778 82.8498C188.697 83.2077 188.341 83.4323 187.983 83.3513L183.721 82.3871ZM174.559 80.7531C174.196 80.6995 173.945 80.3617 173.999 79.9986C174.053 79.6356 174.39 79.3847 174.754 79.4383L179.039 80.0711C179.402 80.1247 179.653 80.4624 179.599 80.8255C179.546 81.1886 179.208 81.4394 178.845 81.3858L174.559 80.7531ZM192.272 84.6562C191.909 84.6026 191.658 84.2648 191.712 83.9017C191.765 83.5387 192.103 83.2878 192.466 83.3414L196.752 83.9742C197.115 84.0278 197.366 84.3655 197.312 84.7286C197.258 85.0917 196.921 85.3425 196.558 85.2889L192.272 84.6562ZM201.433 86.2902C201.075 86.2092 200.851 85.8534 200.932 85.4955C201.013 85.1375 201.369 84.913 201.727 84.9939L205.989 85.9581C206.347 86.0391 206.571 86.3949 206.49 86.7529C206.409 87.1108 206.054 87.3354 205.696 87.2544L201.433 86.2902ZM209.984 88.5593C209.621 88.5057 209.371 88.1679 209.424 87.8048C209.478 87.4418 209.816 87.1909 210.179 87.2445L214.464 87.8772C214.827 87.9309 215.078 88.2686 215.025 88.6317C214.971 88.9948 214.633 89.2456 214.27 89.192L209.984 88.5593ZM168.46 71.9942C168.102 71.9132 167.878 71.5574 167.959 71.1994C168.04 70.8415 168.396 70.617 168.754 70.6979L173.016 71.6621C173.374 71.7431 173.599 72.0989 173.518 72.4569C173.437 72.8148 173.081 73.0393 172.723 72.9584L168.46 71.9942ZM186.173 75.8973C185.815 75.8163 185.59 75.4605 185.671 75.1025C185.752 74.7446 186.108 74.5201 186.466 74.601L190.729 75.5652C191.087 75.6462 191.311 76.002 191.23 76.36C191.149 76.7179 190.793 76.9424 190.435 76.8615L186.173 75.8973ZM177.012 74.2633C176.649 74.2097 176.398 73.8719 176.451 73.5088C176.505 73.1458 176.843 72.8949 177.206 72.9485L181.491 73.5812C181.854 73.6348 182.105 73.9726 182.052 74.3357C181.998 74.6987 181.66 74.9496 181.297 74.896L177.012 74.2633ZM194.724 78.1664C194.361 78.1128 194.11 77.775 194.164 77.4119C194.217 77.0489 194.555 76.798 194.918 76.8516L199.204 77.4843C199.567 77.5379 199.818 77.8757 199.764 78.2388C199.711 78.6018 199.373 78.8527 199.01 78.7991L194.724 78.1664ZM203.885 79.8004C203.528 79.7194 203.303 79.3636 203.384 79.0056C203.465 78.6477 203.821 78.4231 204.179 78.5041L208.441 79.4683C208.799 79.5493 209.024 79.9051 208.943 80.2631C208.862 80.621 208.506 80.8455 208.148 80.7646L203.885 79.8004ZM212.437 82.0694C212.074 82.0158 211.823 81.6781 211.876 81.315C211.93 80.952 212.268 80.7011 212.631 80.7547L216.916 81.3874C217.279 81.441 217.53 81.7788 217.477 82.1419C217.423 82.5049 217.085 82.7558 216.722 82.7022L212.437 82.0694ZM170.913 65.5044C170.555 65.4234 170.33 65.0676 170.411 64.7097C170.492 64.3517 170.848 64.1271 171.206 64.2081L175.468 65.1723C175.826 65.2533 176.051 65.6091 175.97 65.967C175.889 66.325 175.533 66.5495 175.175 66.4686L170.913 65.5044ZM188.625 69.4075C188.267 69.3265 188.043 68.9707 188.124 68.6128C188.205 68.2548 188.56 68.0302 188.918 68.1112L193.181 69.0754C193.539 69.1564 193.763 69.5122 193.682 69.8701C193.601 70.2281 193.246 70.4527 192.888 70.3717L188.625 69.4075ZM179.464 67.7734C179.101 67.7198 178.85 67.3821 178.903 67.019C178.957 66.656 179.295 66.4051 179.658 66.4587L183.944 67.0914C184.307 67.145 184.557 67.4828 184.504 67.8459C184.45 68.2089 184.112 68.4598 183.749 68.4062L179.464 67.7734ZM197.176 71.6765C196.813 71.6229 196.562 71.2852 196.616 70.9221C196.67 70.559 197.007 70.3082 197.37 70.3618L201.656 70.9945C202.019 71.0481 202.27 71.3859 202.216 71.749C202.163 72.112 201.825 72.3629 201.462 72.3093L197.176 71.6765ZM206.338 73.3106C205.98 73.2296 205.755 72.8738 205.836 72.5158C205.917 72.1579 206.273 71.9333 206.631 72.0143L210.893 72.9785C211.251 73.0595 211.476 73.4153 211.395 73.7732C211.314 74.1312 210.958 74.3557 210.6 74.2748L206.338 73.3106ZM214.889 75.5796C214.526 75.526 214.275 75.1883 214.329 74.8252C214.382 74.4621 214.72 74.2113 215.083 74.2649L219.369 74.8976C219.732 74.9512 219.983 75.289 219.929 75.6521C219.875 76.0151 219.538 76.266 219.174 76.2124L214.889 75.5796ZM191.077 62.9177C190.719 62.8367 190.495 62.4809 190.576 62.1229C190.657 61.765 191.013 61.5404 191.371 61.6214L195.633 62.5856C195.991 62.6666 196.215 63.0224 196.134 63.3803C196.054 63.7383 195.698 63.9628 195.34 63.8818L191.077 62.9177ZM181.916 61.2836C181.553 61.23 181.302 60.8923 181.356 60.5292C181.409 60.1661 181.747 59.9153 182.11 59.9689L186.396 60.6016C186.759 60.6552 187.01 60.993 186.956 61.356C186.902 61.7191 186.565 61.97 186.202 61.9164L181.916 61.2836ZM199.629 65.1867C199.265 65.1331 199.015 64.7954 199.068 64.4323C199.122 64.0692 199.46 63.8184 199.823 63.872L204.108 64.5047C204.471 64.5583 204.722 64.8961 204.669 65.2592C204.615 65.6222 204.277 65.8731 203.914 65.8195L199.629 65.1867ZM175.496 59.4967L175.789 58.2004L175.496 59.4967ZM175.496 59.4967L173.365 59.0146C172.501 58.8191 172.794 57.5228 173.658 57.7183L175.789 58.2004L177.92 58.6825C178.785 58.878 178.491 60.1742 177.627 59.9788L175.496 59.4967ZM210.921 67.3029L211.214 66.0066L210.921 67.3029ZM211.214 66.0066C212.078 66.2021 211.785 67.4983 210.921 67.3029L208.79 66.8208C207.926 66.6253 208.219 65.329 209.083 65.5245L211.214 66.0066L213.346 66.4887C214.21 66.6842 213.916 67.9804 213.052 67.7849L210.921 67.3029C210.057 67.1074 210.35 65.8111 211.214 66.0066ZM217.341 69.0898C216.978 69.0362 216.727 68.6985 216.781 68.3354C216.834 67.9723 217.172 67.7215 217.535 67.7751L221.821 68.4078C222.184 68.4614 222.435 68.7992 222.381 69.1623C222.328 69.5253 221.99 69.7762 221.627 69.7226L217.341 69.0898ZM104.245 88.6037C103.886 88.529 103.655 88.1772 103.73 87.8179C103.804 87.4586 104.156 87.2279 104.515 87.3026L108.794 88.1922C109.153 88.2669 109.384 88.6188 109.309 88.9781C109.235 89.3374 108.883 89.5681 108.523 89.4934L104.245 88.6037ZM106.583 82.0721C106.224 81.9974 105.993 81.6456 106.068 81.2862C106.143 80.9269 106.495 80.6962 106.854 80.7709L111.133 81.6606C111.492 81.7353 111.723 82.0871 111.648 82.4465C111.573 82.8058 111.221 83.0365 110.862 82.9618L106.583 82.0721ZM122.023 92.1971C121.664 92.1224 121.433 91.7706 121.508 91.4112C121.582 91.0519 121.934 90.8212 122.293 90.8959L126.572 91.7856C126.931 91.8603 127.162 92.2121 127.087 92.5714C127.013 92.9308 126.661 93.1615 126.301 93.0868L122.023 92.1971ZM124.361 85.6655C124.002 85.5908 123.771 85.2389 123.846 84.8796C123.921 84.5203 124.273 84.2896 124.632 84.3643L128.911 85.254C129.27 85.3287 129.501 85.6805 129.426 86.0398C129.351 86.3991 128.999 86.6299 128.64 86.5551L124.361 85.6655ZM112.834 90.7232C112.47 90.676 112.214 90.3426 112.261 89.9787C112.308 89.6147 112.642 89.358 113.006 89.4053L117.302 89.9631C117.665 90.0104 117.922 90.3437 117.875 90.7077C117.828 91.0716 117.494 91.3283 117.13 91.2811L112.834 90.7232ZM115.173 84.1916C114.809 84.1443 114.552 83.811 114.6 83.4471C114.647 83.0831 114.98 82.8264 115.344 82.8737L119.64 83.4315C120.004 83.4788 120.261 83.8121 120.213 84.176C120.166 84.54 119.833 84.7967 119.469 84.7494L115.173 84.1916ZM130.612 94.3166C130.248 94.2693 129.992 93.936 130.039 93.5721C130.086 93.2081 130.42 92.9514 130.783 92.9986L135.079 93.5565C135.443 93.6038 135.7 93.9371 135.653 94.301C135.606 94.665 135.272 94.9217 134.908 94.8745L130.612 94.3166ZM132.951 87.785C132.587 87.7377 132.33 87.4044 132.378 87.0404C132.425 86.6765 132.758 86.4198 133.122 86.467L137.418 87.0249C137.782 87.0721 138.039 87.4055 137.991 87.7694C137.944 88.1334 137.611 88.3901 137.247 88.3428L132.951 87.785ZM139.801 95.7905C139.442 95.7158 139.211 95.3639 139.285 95.0046C139.36 94.6453 139.712 94.4146 140.071 94.4893L144.35 95.379C144.709 95.4537 144.94 95.8055 144.865 96.1648C144.791 96.5241 144.439 96.7549 144.079 96.6801L139.801 95.7905ZM142.139 89.2589C141.78 89.1841 141.549 88.8323 141.624 88.473C141.699 88.1137 142.051 87.883 142.41 87.9577L146.689 88.8473C147.048 88.9221 147.279 89.2739 147.204 89.6332C147.129 89.9925 146.777 90.2232 146.418 90.1485L142.139 89.2589ZM148.39 97.91C148.026 97.8627 147.77 97.5294 147.817 97.1654C147.864 96.8015 148.198 96.5448 148.561 96.592L152.857 97.1499C153.221 97.1971 153.478 97.5305 153.431 97.8944C153.384 98.2584 153.05 98.5151 152.686 98.4678L148.39 97.91ZM150.729 91.3784C150.365 91.3311 150.108 90.9978 150.155 90.6338C150.203 90.2699 150.536 90.0131 150.9 90.0604L155.196 90.6182C155.56 90.6655 155.817 90.9989 155.769 91.3628C155.722 91.7267 155.389 91.9835 155.025 91.9362L150.729 91.3784ZM108.922 75.5405C108.563 75.4658 108.332 75.1139 108.407 74.7546C108.481 74.3953 108.833 74.1646 109.193 74.2393L113.471 75.129C113.83 75.2037 114.061 75.5555 113.986 75.9148C113.912 76.2741 113.56 76.5049 113.201 76.4301L108.922 75.5405ZM126.7 79.1339C126.341 79.0591 126.11 78.7073 126.185 78.348C126.259 77.9887 126.611 77.758 126.971 77.8327L131.249 78.7223C131.608 78.7971 131.839 79.1489 131.764 79.5082C131.69 79.8675 131.338 80.0982 130.979 80.0235L126.7 79.1339ZM117.512 77.66C117.148 77.6127 116.891 77.2794 116.938 76.9154C116.985 76.5515 117.319 76.2948 117.683 76.342L121.979 76.8999C122.343 76.9472 122.599 77.2805 122.552 77.6444C122.505 78.0084 122.171 78.2651 121.807 78.2178L117.512 77.66ZM135.289 81.2534C134.926 81.2061 134.669 80.8727 134.716 80.5088C134.763 80.1449 135.097 79.8881 135.461 79.9354L139.757 80.4932C140.121 80.5405 140.377 80.8739 140.33 81.2378C140.283 81.6017 139.949 81.8585 139.585 81.8112L135.289 81.2534ZM144.478 82.7272C144.119 82.6525 143.888 82.3007 143.963 81.9414C144.037 81.5821 144.389 81.3514 144.748 81.4261L149.027 82.3157C149.386 82.3904 149.617 82.7423 149.542 83.1016C149.468 83.4609 149.116 83.6916 148.757 83.6169L144.478 82.7272ZM153.067 84.8467C152.703 84.7995 152.447 84.4661 152.494 84.1022C152.541 83.7382 152.875 83.4815 153.239 83.5288L157.535 84.0866C157.898 84.1339 158.155 84.4672 158.108 84.8312C158.061 85.1951 157.727 85.4518 157.363 85.4046L153.067 84.8467ZM111.261 69.0089C110.901 68.9342 110.671 68.5823 110.745 68.223C110.82 67.8637 111.172 67.633 111.531 67.7077L115.81 68.5973C116.169 68.6721 116.4 69.0239 116.325 69.3832C116.25 69.7425 115.898 69.9732 115.539 69.8985L111.261 69.0089ZM129.039 72.6023C128.679 72.5275 128.449 72.1757 128.523 71.8164C128.598 71.4571 128.95 71.2264 129.309 71.3011L133.588 72.1907C133.947 72.2654 134.178 72.6173 134.103 72.9766C134.028 73.3359 133.676 73.5666 133.317 73.4919L129.039 72.6023ZM119.85 71.1283C119.486 71.0811 119.229 70.7477 119.277 70.3838C119.324 70.0199 119.657 69.7632 120.021 69.8104L124.317 70.3683C124.681 70.4155 124.938 70.7489 124.891 71.1128C124.843 71.4767 124.51 71.7335 124.146 71.6862L119.85 71.1283ZM137.628 74.7217C137.264 74.6745 137.007 74.3411 137.055 73.9772C137.102 73.6132 137.435 73.3565 137.799 73.4038L142.095 73.9616C142.459 74.0089 142.716 74.3422 142.669 74.7062C142.621 75.0701 142.288 75.3268 141.924 75.2796L137.628 74.7217ZM146.816 76.1956C146.457 76.1209 146.226 75.7691 146.301 75.4098C146.376 75.0504 146.728 74.8197 147.087 74.8944L151.366 75.7841C151.725 75.8588 151.956 76.2107 151.881 76.57C151.806 76.9293 151.454 77.16 151.095 77.0853L146.816 76.1956ZM155.406 78.3151C155.042 78.2678 154.785 77.9345 154.833 77.5706C154.88 77.2066 155.213 76.9499 155.577 76.9972L159.873 77.555C160.237 77.6023 160.494 77.9356 160.447 78.2996C160.399 78.6635 160.066 78.9202 159.702 78.873L155.406 78.3151ZM113.599 62.4773C113.24 62.4025 113.009 62.0507 113.084 61.6914C113.159 61.3321 113.51 61.1014 113.87 61.1761L118.148 62.0657C118.508 62.1404 118.738 62.4923 118.664 62.8516C118.589 63.2109 118.237 63.4416 117.878 63.3669L113.599 62.4773ZM131.377 66.0706C131.018 65.9959 130.787 65.6441 130.862 65.2848C130.936 64.9255 131.288 64.6947 131.648 64.7694L135.926 65.6591C136.286 65.7338 136.516 66.0857 136.442 66.445C136.367 66.8043 136.015 67.035 135.656 66.9603L131.377 66.0706ZM122.189 64.5968C121.825 64.5495 121.568 64.2161 121.615 63.8522C121.662 63.4882 121.996 63.2315 122.36 63.2788L126.656 63.8366C127.02 63.8839 127.276 64.2172 127.229 64.5812C127.182 64.9451 126.849 65.2018 126.485 65.1546L122.189 64.5968ZM139.967 68.1901C139.603 68.1428 139.346 67.8095 139.393 67.4456C139.44 67.0816 139.774 66.8249 140.138 66.8722L144.434 67.43C144.798 67.4773 145.054 67.8106 145.007 68.1746C144.96 68.5385 144.627 68.7952 144.263 68.748L139.967 68.1901ZM149.155 69.664C148.796 69.5893 148.565 69.2374 148.64 68.8781C148.714 68.5188 149.066 68.2881 149.426 68.3628L153.704 69.2525C154.064 69.3272 154.294 69.679 154.22 70.0383C154.145 70.3977 153.793 70.6284 153.434 70.5537L149.155 69.664ZM157.745 71.7835C157.381 71.7362 157.124 71.4029 157.171 71.0389C157.218 70.675 157.552 70.4183 157.916 70.4655L162.212 71.0234C162.576 71.0707 162.832 71.404 162.785 71.7679C162.738 72.1319 162.404 72.3886 162.041 72.3413L157.745 71.7835ZM115.938 55.9456C115.578 55.8709 115.348 55.5191 115.422 55.1597C115.497 54.8004 115.849 54.5697 116.208 54.6445L120.487 55.5341C120.846 55.6088 121.077 55.9606 121.002 56.32C120.927 56.6793 120.576 56.91 120.216 56.8353L115.938 55.9456ZM133.716 59.539C133.356 59.4643 133.126 59.1125 133.2 58.7531C133.275 58.3938 133.627 58.1631 133.986 58.2378L138.265 59.1275C138.624 59.2022 138.855 59.554 138.78 59.9133C138.705 60.2727 138.354 60.5034 137.994 60.4286L133.716 59.539ZM124.527 58.0651C124.163 58.0179 123.907 57.6845 123.954 57.3206C124.001 56.9566 124.334 56.6999 124.698 56.7472L128.994 57.305C129.358 57.3523 129.615 57.6856 129.568 58.0496C129.52 58.4135 129.187 58.6702 128.823 58.6229L124.527 58.0651ZM142.305 61.6585C141.941 61.6112 141.684 61.2779 141.732 60.9139C141.779 60.55 142.112 60.2933 142.476 60.3405L146.772 60.8984C147.136 60.9456 147.393 61.279 147.346 61.6429C147.298 62.0069 146.965 62.2636 146.601 62.2163L142.305 61.6585ZM151.494 63.1324C151.134 63.0577 150.904 62.7058 150.978 62.3465C151.053 61.9872 151.405 61.7565 151.764 61.8312L156.043 62.7208C156.402 62.7956 156.633 63.1474 156.558 63.5067C156.483 63.866 156.132 64.0967 155.772 64.022L151.494 63.1324ZM160.083 65.2519C159.719 65.2046 159.462 64.8713 159.51 64.5073C159.557 64.1434 159.89 63.8867 160.254 63.9339L164.55 64.4918C164.914 64.539 165.171 64.8724 165.124 65.2363C165.076 65.6003 164.743 65.857 164.379 65.8097L160.083 65.2519ZM136.054 53.0074C135.695 52.9327 135.464 52.5808 135.539 52.2215C135.614 51.8622 135.965 51.6315 136.325 51.7062L140.603 52.5959C140.963 52.6706 141.193 53.0224 141.119 53.3817C141.044 53.741 140.692 53.9717 140.333 53.897L136.054 53.0074ZM126.866 51.5335C126.502 51.4862 126.245 51.1529 126.292 50.7889C126.34 50.425 126.673 50.1683 127.037 50.2156L131.333 50.7734C131.697 50.8207 131.954 51.154 131.906 51.5179C131.859 51.8819 131.526 52.1386 131.162 52.0914L126.866 51.5335ZM144.644 55.1269C144.28 55.0796 144.023 54.7462 144.07 54.3823C144.118 54.0184 144.451 53.7616 144.815 53.8089L149.111 54.3668C149.475 54.414 149.732 54.7474 149.684 55.1113C149.637 55.4752 149.304 55.732 148.94 55.6847L144.644 55.1269ZM120.416 49.8588L120.686 48.5577L120.416 49.8588ZM120.416 49.8588L118.276 49.414C117.409 49.2336 117.679 47.9325 118.547 48.1128L120.686 48.5577L122.825 49.0025C123.693 49.1829 123.422 50.484 122.555 50.3037L120.416 49.8588ZM155.971 57.0456L156.242 55.7444L155.971 57.0456ZM156.242 55.7444C157.109 55.9248 156.839 57.226 155.971 57.0456L153.832 56.6008C152.965 56.4204 153.235 55.1192 154.103 55.2996L156.242 55.7444L158.381 56.1892C159.249 56.3696 158.978 57.6708 158.111 57.4904L155.971 57.0456C155.104 56.8652 155.375 55.564 156.242 55.7444ZM162.422 58.7202C162.058 58.673 161.801 58.3396 161.848 57.9757C161.896 57.6118 162.229 57.355 162.593 57.4023L166.889 57.9602C167.253 58.0074 167.509 58.3407 167.462 58.7047C167.415 59.0686 167.082 59.3253 166.718 59.2781L162.422 58.7202ZM151.573 164.237C151.486 164.593 151.127 164.812 150.77 164.724C150.414 164.637 150.195 164.277 150.282 163.921L151.321 159.676C151.408 159.32 151.768 159.101 152.124 159.188C152.481 159.276 152.699 159.635 152.612 159.992L151.573 164.237ZM145.127 161.672C145.04 162.028 144.681 162.246 144.324 162.159C143.968 162.072 143.749 161.712 143.836 161.356L144.875 157.111C144.962 156.754 145.322 156.536 145.678 156.623C146.035 156.711 146.253 157.07 146.166 157.427L145.127 161.672ZM155.785 146.595C155.698 146.952 155.338 147.17 154.982 147.083C154.625 146.995 154.407 146.636 154.494 146.279L155.533 142.034C155.62 141.678 155.979 141.46 156.336 141.547C156.692 141.634 156.911 141.994 156.823 142.35L155.785 146.595ZM149.339 144.03C149.252 144.386 148.892 144.605 148.536 144.518C148.179 144.43 147.961 144.071 148.048 143.714L149.087 139.469C149.174 139.113 149.533 138.894 149.89 138.982C150.246 139.069 150.465 139.429 150.377 139.785L149.339 144.03ZM153.991 155.726C153.931 156.089 153.589 156.333 153.227 156.274C152.865 156.214 152.62 155.871 152.68 155.509L153.388 151.236C153.448 150.873 153.79 150.629 154.152 150.688C154.514 150.748 154.759 151.09 154.699 151.453L153.991 155.726ZM147.545 153.161C147.485 153.523 147.143 153.768 146.781 153.708C146.419 153.649 146.174 153.306 146.234 152.944L146.942 148.67C147.002 148.308 147.344 148.063 147.706 148.123C148.068 148.183 148.313 148.525 148.253 148.887L147.545 153.161ZM158.203 138.085C158.143 138.447 157.801 138.692 157.439 138.632C157.077 138.572 156.832 138.23 156.892 137.868L157.599 133.594C157.659 133.232 158.001 132.987 158.363 133.047C158.725 133.107 158.97 133.449 158.91 133.811L158.203 138.085ZM151.757 135.52C151.697 135.882 151.355 136.127 150.993 136.067C150.631 136.007 150.386 135.665 150.446 135.303L151.153 131.029C151.213 130.667 151.555 130.422 151.917 130.482C152.279 130.542 152.524 130.884 152.464 131.246L151.757 135.52ZM159.997 128.953C159.909 129.31 159.55 129.528 159.193 129.441C158.837 129.354 158.619 128.994 158.706 128.637L159.744 124.393C159.831 124.036 160.191 123.818 160.548 123.905C160.904 123.992 161.122 124.352 161.035 124.708L159.997 128.953ZM153.551 126.388C153.463 126.745 153.104 126.963 152.747 126.876C152.391 126.789 152.173 126.429 152.26 126.072L153.298 121.827C153.385 121.471 153.745 121.253 154.102 121.34C154.458 121.427 154.676 121.787 154.589 122.143L153.551 126.388ZM162.415 120.443C162.355 120.805 162.013 121.05 161.651 120.99C161.288 120.93 161.044 120.588 161.103 120.226L161.811 115.952C161.871 115.59 162.213 115.345 162.575 115.405C162.937 115.465 163.182 115.807 163.122 116.169L162.415 120.443ZM155.969 117.878C155.909 118.24 155.567 118.485 155.205 118.425C154.842 118.365 154.598 118.023 154.657 117.661L155.365 113.387C155.425 113.025 155.767 112.78 156.129 112.84C156.491 112.9 156.736 113.242 156.676 113.604L155.969 117.878ZM138.681 159.107C138.594 159.463 138.234 159.681 137.878 159.594C137.522 159.507 137.303 159.147 137.39 158.791L138.429 154.546C138.516 154.189 138.876 153.971 139.232 154.058C139.589 154.145 139.807 154.505 139.72 154.862L138.681 159.107ZM142.893 141.465C142.806 141.821 142.446 142.04 142.09 141.952C141.733 141.865 141.515 141.506 141.602 141.149L142.64 136.904C142.728 136.548 143.087 136.329 143.444 136.417C143.8 136.504 144.019 136.863 143.931 137.22L142.893 141.465ZM141.099 150.596C141.039 150.958 140.697 151.203 140.335 151.143C139.973 151.083 139.728 150.741 139.788 150.379L140.496 146.105C140.556 145.743 140.898 145.498 141.26 145.558C141.622 145.618 141.867 145.96 141.807 146.322L141.099 150.596ZM145.311 132.955C145.251 133.317 144.909 133.562 144.547 133.502C144.185 133.442 143.94 133.1 144 132.738L144.707 128.464C144.767 128.102 145.109 127.857 145.471 127.917C145.833 127.977 146.078 128.319 146.018 128.681L145.311 132.955ZM147.105 123.823C147.017 124.18 146.658 124.398 146.301 124.311C145.945 124.223 145.726 123.864 145.814 123.507L146.852 119.262C146.939 118.906 147.299 118.688 147.655 118.775C148.012 118.862 148.23 119.222 148.143 119.578L147.105 123.823ZM149.523 115.313C149.463 115.675 149.121 115.92 148.758 115.86C148.396 115.8 148.151 115.458 148.211 115.096L148.919 110.822C148.979 110.46 149.321 110.215 149.683 110.275C150.045 110.335 150.29 110.677 150.23 111.039L149.523 115.313ZM132.235 156.541C132.148 156.898 131.788 157.116 131.432 157.029C131.075 156.942 130.857 156.582 130.944 156.226L131.983 151.981C132.07 151.624 132.43 151.406 132.786 151.493C133.143 151.58 133.361 151.94 133.274 152.297L132.235 156.541ZM136.447 138.9C136.36 139.256 136 139.475 135.644 139.387C135.287 139.3 135.069 138.94 135.156 138.584L136.194 134.339C136.282 133.983 136.641 133.764 136.998 133.851C137.354 133.939 137.573 134.298 137.485 134.655L136.447 138.9ZM134.653 148.031C134.593 148.393 134.251 148.638 133.889 148.578C133.527 148.518 133.282 148.176 133.342 147.814L134.05 143.54C134.11 143.178 134.452 142.933 134.814 142.993C135.176 143.053 135.421 143.395 135.361 143.757L134.653 148.031ZM138.865 130.389C138.805 130.752 138.463 130.996 138.101 130.937C137.739 130.877 137.494 130.535 137.554 130.172L138.261 125.899C138.321 125.536 138.663 125.292 139.025 125.351C139.387 125.411 139.632 125.753 139.572 126.116L138.865 130.389ZM140.659 121.258C140.571 121.615 140.212 121.833 139.855 121.746C139.499 121.658 139.28 121.299 139.368 120.942L140.406 116.697C140.493 116.341 140.853 116.123 141.209 116.21C141.566 116.297 141.784 116.657 141.697 117.013L140.659 121.258ZM143.077 112.748C143.017 113.11 142.675 113.355 142.312 113.295C141.95 113.235 141.705 112.893 141.765 112.531L142.473 108.257C142.533 107.895 142.875 107.65 143.237 107.71C143.599 107.77 143.844 108.112 143.784 108.474L143.077 112.748ZM125.789 153.976C125.702 154.333 125.342 154.551 124.986 154.464C124.629 154.377 124.411 154.017 124.498 153.661L125.537 149.416C125.624 149.059 125.984 148.841 126.34 148.928C126.697 149.015 126.915 149.375 126.828 149.731L125.789 153.976ZM130.001 136.335C129.914 136.691 129.554 136.909 129.198 136.822C128.841 136.735 128.623 136.375 128.71 136.019L129.748 131.774C129.836 131.417 130.195 131.199 130.552 131.286C130.908 131.374 131.127 131.733 131.039 132.09L130.001 136.335ZM128.207 145.466C128.147 145.828 127.805 146.073 127.443 146.013C127.081 145.953 126.836 145.611 126.896 145.249L127.604 140.975C127.663 140.613 128.006 140.368 128.368 140.428C128.73 140.488 128.975 140.83 128.915 141.192L128.207 145.466ZM132.419 127.824C132.359 128.186 132.017 128.431 131.655 128.371C131.293 128.312 131.048 127.969 131.108 127.607L131.815 123.333C131.875 122.971 132.217 122.726 132.579 122.786C132.941 122.846 133.186 123.188 133.126 123.55L132.419 127.824ZM134.213 118.693C134.125 119.049 133.766 119.268 133.409 119.181C133.053 119.093 132.834 118.734 132.922 118.377L133.96 114.132C134.047 113.776 134.407 113.557 134.763 113.645C135.12 113.732 135.338 114.092 135.251 114.448L134.213 118.693ZM136.631 110.183C136.571 110.545 136.229 110.79 135.866 110.73C135.504 110.67 135.259 110.328 135.319 109.966L136.027 105.692C136.087 105.33 136.429 105.085 136.791 105.145C137.153 105.205 137.398 105.547 137.338 105.909L136.631 110.183ZM119.343 151.411C119.256 151.768 118.896 151.986 118.54 151.899C118.183 151.812 117.965 151.452 118.052 151.096L119.091 146.851C119.178 146.494 119.538 146.276 119.894 146.363C120.251 146.45 120.469 146.81 120.382 147.166L119.343 151.411ZM123.555 133.77C123.468 134.126 123.108 134.344 122.752 134.257C122.395 134.17 122.177 133.81 122.264 133.454L123.302 129.209C123.39 128.852 123.749 128.634 124.106 128.721C124.462 128.808 124.681 129.168 124.593 129.525L123.555 133.77ZM121.761 142.901C121.701 143.263 121.359 143.508 120.997 143.448C120.635 143.388 120.39 143.046 120.45 142.684L121.158 138.41C121.217 138.048 121.56 137.803 121.922 137.863C122.284 137.923 122.529 138.265 122.469 138.627L121.761 142.901ZM125.973 125.259C125.913 125.621 125.571 125.866 125.209 125.806C124.847 125.746 124.602 125.404 124.662 125.042L125.369 120.768C125.429 120.406 125.771 120.161 126.133 120.221C126.495 120.281 126.74 120.623 126.68 120.985L125.973 125.259ZM127.767 116.128C127.679 116.484 127.32 116.703 126.963 116.615C126.607 116.528 126.388 116.169 126.476 115.812L127.514 111.567C127.601 111.211 127.961 110.992 128.317 111.08C128.674 111.167 128.892 111.526 128.805 111.883L127.767 116.128ZM130.185 107.618C130.125 107.98 129.782 108.225 129.42 108.165C129.058 108.105 128.813 107.763 128.873 107.401L129.581 103.127C129.641 102.765 129.983 102.52 130.345 102.58C130.707 102.639 130.952 102.982 130.892 103.344L130.185 107.618ZM117.109 131.205C117.022 131.561 116.662 131.779 116.306 131.692C115.949 131.605 115.731 131.245 115.818 130.889L116.856 126.644C116.944 126.287 117.303 126.069 117.66 126.156C118.016 126.243 118.235 126.603 118.147 126.96L117.109 131.205ZM115.315 140.336C115.255 140.698 114.913 140.943 114.551 140.883C114.189 140.823 113.944 140.481 114.004 140.119L114.711 135.845C114.771 135.483 115.114 135.238 115.476 135.298C115.838 135.358 116.083 135.7 116.023 136.062L115.315 140.336ZM119.527 122.694C119.467 123.056 119.125 123.301 118.763 123.241C118.401 123.181 118.156 122.839 118.216 122.477L118.923 118.203C118.983 117.841 119.325 117.596 119.687 117.656C120.049 117.716 120.294 118.058 120.234 118.42L119.527 122.694ZM113.416 146.724L112.126 146.408L113.416 146.724ZM113.416 146.724L112.897 148.846C112.687 149.707 111.396 149.391 111.606 148.53L112.126 146.408L112.645 144.285C112.855 143.425 114.146 143.741 113.936 144.601L113.416 146.724ZM121.84 111.44L120.549 111.125L121.84 111.44ZM120.549 111.125C120.759 110.264 122.05 110.58 121.84 111.44L121.321 113.563C121.11 114.423 119.819 114.108 120.03 113.247L120.549 111.125L121.068 109.002C121.279 108.141 122.569 108.457 122.359 109.318L121.84 111.44C121.629 112.301 120.338 111.985 120.549 111.125ZM123.738 105.052C123.679 105.415 123.336 105.659 122.974 105.6C122.612 105.54 122.367 105.198 122.427 104.835L123.135 100.562C123.195 100.199 123.537 99.9546 123.899 100.014C124.261 100.074 124.506 100.417 124.446 100.779L123.738 105.052Z" fill="#002D6F"/>
</g>
<path d="M302.756 170.676C253.072 161.881 233.521 134.713 240.872 92.8583C248.193 51.1835 275.79 32.5458 325.473 41.3399C374.978 50.1025 394.708 77.3029 387.42 118.798C380.1 160.473 352.26 179.438 302.756 170.676ZM307.493 143.705C336.017 148.754 351.518 136.806 355.668 113.177C359.787 89.7289 349.26 73.3593 320.736 68.3104C292.212 63.2616 276.775 74.8493 272.624 98.4778C268.442 122.287 278.969 138.656 307.493 143.705Z" fill="#56AAFF"/>
<path d="M302.756 170.676C253.072 161.881 233.521 134.713 240.872 92.8583C248.193 51.1835 275.79 32.5458 325.473 41.3399C374.978 50.1025 394.708 77.3029 387.42 118.798C380.1 160.473 352.26 179.438 302.756 170.676ZM307.493 143.705C336.017 148.754 351.518 136.806 355.668 113.177C359.787 89.7289 349.26 73.3593 320.736 68.3104C292.212 63.2616 276.775 74.8493 272.624 98.4778C268.442 122.287 278.969 138.656 307.493 143.705Z" fill="#56AAFF"/>
<path d="M255.548 58.6675C264.337 62.7382 277.664 68.3691 288.28 72.4992C279.986 77.6564 274.897 86.5673 272.772 98.6194C268.583 122.376 279.164 138.717 307.814 143.768C336.465 148.82 352.028 136.904 356.185 113.327C359.446 94.8346 353.519 80.7503 336.745 73.1639L360.326 53.0586C384.454 66.5326 393.356 89.0175 388.078 118.952C380.745 160.536 352.793 179.448 303.069 170.68C253.165 161.881 233.515 134.76 240.879 92.9965C243.378 78.8244 248.244 67.3235 255.548 58.6675Z" fill="#56AAFF"/>
<path fill-rule="evenodd" clip-rule="evenodd" d="M322.391 16.3917C320.715 14.9679 319.535 12.9479 319.205 10.599C318.49 5.51103 322.035 0.80676 327.123 0.0916953C332.211 -0.623369 336.915 2.92155 337.63 8.0095C338.345 13.0975 334.8 17.8017 329.712 18.5168C329.161 18.5943 328.613 18.6218 328.075 18.6026C338.571 23.3817 342.672 29.9175 340.379 38.2103C337.499 48.6209 337.499 56.4842 340.379 61.8002L285.225 51.1681C288.45 46.8161 290.443 43.4936 291.205 41.2005C294.976 29.8516 295.015 22.2621 295.524 22.2621C296.189 22.2621 303.942 19.9363 318.782 15.2848C320.038 15.6391 321.241 16.0081 322.391 16.3917Z" fill="#002D6F"/>
<path d="M337.38 37.8792C337.425 27.247 330.027 17.6791 319.216 15.3812L315.966 14.6904C303.582 12.058 291.408 19.9638 288.775 32.3485L287.325 39.1733C285.493 47.7887 290.993 56.2575 299.608 58.0887L307.8 59.83L303.118 81.9326C305.587 84.6806 309.369 86.4977 314.463 87.3837C319.558 88.2697 323.854 87.7214 327.353 85.7387L335.495 46.9101C336.086 45.5387 336.552 44.0891 336.874 42.5722C337.206 41.0123 337.37 39.4558 337.379 37.9213L337.389 37.878L337.38 37.8792Z" fill="#FF9C99"/>
<mask id="mask2" mask-type="alpha" maskUnits="userSpaceOnUse" x="278" y="9" width="64" height="82">
<path d="M337.379 37.8792C337.424 27.247 330.026 17.6791 319.216 15.3812L315.966 14.6904C303.581 12.058 291.407 19.9638 288.775 32.3485L287.324 39.1733C285.493 47.7887 290.993 56.2575 299.608 58.0887L307.8 59.83L303.117 81.9326C305.586 84.6806 309.368 86.4977 314.463 87.3837C319.557 88.2697 323.854 87.7214 327.353 85.7387L335.494 46.9101C336.086 45.5387 336.551 44.0891 336.874 42.5722C337.205 41.0123 337.37 39.4558 337.379 37.9213L337.388 37.878L337.379 37.8792Z" fill="#FF9C99"/>
</mask>
<g mask="url(#mask2)">
<path fill-rule="evenodd" clip-rule="evenodd" d="M307.154 59.8067L319.779 59.4744L305.825 63.7937L307.154 59.8067ZM289.639 28.2844C292.269 21.8647 295.287 17.4006 298.694 14.8921C302.101 12.3837 308.45 9.95128 317.741 7.59484L345.114 26.1774L335.395 52.4971L333.069 60.4712L330.291 47.4127L316.909 34.0807L307.189 32.0147L307.996 28.2153L301.519 30.8095L289.639 28.2844Z" fill="#002D6F"/>
</g>
<path d="M220.712 240.759L209.933 278.348L175.217 268.393L167.133 296.584L122.498 283.785L130.582 255.594L8.08387 220.468L18.8622 182.88L172.136 110.68L216.771 123.479L185.996 230.804L220.712 240.759ZM67.412 196.787L141.509 218.034L159.642 154.796L67.412 196.787Z" fill="#56AAFF"/>
<mask id="mask3" mask-type="alpha" maskUnits="userSpaceOnUse" x="0" y="75" width="252" height="232">
<path d="M220.712 240.759L209.933 278.348L175.217 268.393L167.133 296.584L122.498 283.785L130.582 255.594L8.08387 220.468L18.8622 182.88L172.136 110.68L216.771 123.479L185.996 230.804L220.712 240.759ZM67.412 196.787L141.509 218.034L159.642 154.796L67.412 196.787Z" fill="#56AAFF"/>
</mask>
<g mask="url(#mask3)">
<path fill-rule="evenodd" clip-rule="evenodd" d="M101.821 210.982L107.137 263.81L94.8436 295.374L116.44 307.668L151.659 338.235L159.301 331.922C164.769 326.133 167.87 321.371 168.604 317.635C169.338 313.9 181.188 313.9 204.155 317.635L159.301 195.034L101.821 210.982Z" fill="#002D6F"/>
</g>
<path d="M583.737 216.864L604.459 250.025L573.831 269.163L589.373 294.034L549.995 318.641L534.453 293.769L426.382 361.3L405.661 328.138L454.566 165.923L493.944 141.317L553.11 236.002L583.737 216.864ZM448.482 301.365L513.852 260.517L478.991 204.727L448.482 301.365Z" fill="#56AAFF"/>
<mask id="mask4" mask-type="alpha" maskUnits="userSpaceOnUse" x="346" y="122" width="274" height="265">
<path d="M583.737 216.863L604.459 250.025L573.831 269.163L589.373 294.034L549.995 318.64L534.453 293.769L426.382 361.299L405.661 328.138L454.566 165.923L493.944 141.316L553.11 236.001L583.737 216.863ZM448.482 301.364L513.852 260.517L478.991 204.727L448.482 301.364Z" fill="#56AAFF"/>
</mask>
<g mask="url(#mask4)">
<path fill-rule="evenodd" clip-rule="evenodd" d="M425.436 284.077C424.55 284.077 419.123 303.016 409.155 340.893L426.765 367.473L487.567 341.225L477.932 279.426C443.82 282.527 426.322 284.077 425.436 284.077Z" fill="#002D6F"/>
</g>
<path fill-rule="evenodd" clip-rule="evenodd" d="M301.505 30.9007L285.889 27.5781C293.642 15.174 304.163 10.9655 317.453 14.9525C328.685 18.3221 319.842 17.9909 304.495 23.2589C302.62 23.9025 301.624 26.4497 301.505 30.9007Z" fill="#002D6F"/>
<path d="M291.442 36.1299C291.505 36.4536 291.538 36.8224 291.538 37.2137C291.538 38.4973 291.19 39.5395 290.541 39.5395C289.892 39.5395 289.544 38.4973 289.544 37.2137C289.544 36.5935 289.625 36.0297 289.782 35.6126C288.188 35.2397 286.815 35.2683 285.578 35.6893C285.231 35.8076 284.853 35.6218 284.735 35.2744C284.617 34.927 284.803 34.5495 285.15 34.4312C287.025 33.7927 289.111 33.9068 291.552 34.7448C292.728 35.1482 294.084 36.1587 295.655 37.7728C295.911 38.0357 295.905 38.4564 295.642 38.7124C295.38 38.9684 294.959 38.9628 294.703 38.6998C293.423 37.3855 292.328 36.5297 291.442 36.1299ZM309.988 40.5208C310.091 40.9005 310.144 41.3645 310.144 41.8652C310.144 43.1489 309.796 44.191 309.147 44.191C308.498 44.191 308.15 43.1489 308.15 41.8652C308.15 41.1805 308.249 40.5644 308.44 40.1386C307.103 39.9054 305.924 39.9748 304.849 40.3409C304.502 40.4591 304.124 40.2734 304.006 39.926C303.887 39.5786 304.073 39.201 304.421 39.0828C306.296 38.4442 308.382 38.5583 310.823 39.3963C311.998 39.7997 313.355 40.8103 314.926 42.4243C315.182 42.6873 315.176 43.108 314.913 43.364C314.65 43.62 314.229 43.6143 313.973 43.3514C312.535 41.8734 311.329 40.9752 310.391 40.6533C310.255 40.6066 310.121 40.5625 309.988 40.5208ZM301.406 38.5602L297.59 44.7238L299.974 45.2007C300.334 45.2726 300.568 45.6227 300.496 45.9826C300.424 46.3425 300.074 46.5758 299.714 46.5039L296.391 45.8394C295.937 45.7485 295.713 45.232 295.956 44.838L300.276 37.8607C300.469 37.5486 300.878 37.4523 301.191 37.6454C301.503 37.8386 301.599 38.2482 301.406 38.5602ZM295.589 50.1685C295.223 50.2038 294.899 49.9363 294.863 49.5711C294.828 49.2058 295.095 48.881 295.461 48.8456L305.761 47.8489C306.126 47.8135 306.451 48.081 306.486 48.4463C306.521 48.8116 306.254 49.1364 305.889 49.1717L295.589 50.1685Z" fill="#002D6F"/>
<path fill-rule="evenodd" clip-rule="evenodd" d="M323.906 42.7005C327.318 39.2889 330.598 39.0265 333.748 41.9132C338.471 46.2433 333.124 54.3381 327.489 54.2177C323.732 54.1373 322.538 50.2983 323.906 42.7005Z" fill="#FF9C99"/>
<path fill-rule="evenodd" clip-rule="evenodd" d="M115.739 210.683L110.221 224.086C109.161 226.659 106.783 228.45 104.017 228.757C103.653 228.798 103.285 228.775 102.929 228.69C101.225 228.283 100.173 226.571 100.58 224.866L110.164 184.734L111.649 184.091C119.041 180.895 127.271 180.183 135.103 182.062C151.323 185.955 160.509 190.5 162.66 195.698C165.177 201.783 170.179 216.91 177.666 241.081C178.352 243.296 177.112 245.648 174.897 246.334C174.86 246.346 174.824 246.356 174.787 246.367C172.436 247.025 169.973 245.778 169.111 243.494L157.85 213.637C157.019 211.435 154.563 210.322 152.36 211.148C150.102 211.994 148.864 214.424 149.506 216.747L156.473 241.971C157.266 244.843 155.581 247.815 152.708 248.609C152.593 248.64 152.477 248.668 152.36 248.692C149.183 249.346 146.045 247.421 145.19 244.293L138.282 219.045C137.659 216.766 135.306 215.424 133.027 216.048C132.936 216.073 132.846 216.101 132.757 216.132C130.292 216.985 128.854 219.545 129.407 222.094L135.017 247.951C135.444 249.917 134.196 251.856 132.23 252.282C131.858 252.363 131.475 252.385 131.095 252.347C128.105 252.048 125.622 249.907 124.888 246.992L115.739 210.683ZM457.143 269.619C462.741 268.384 468.593 269.899 472.889 273.695L480.501 280.423L473.192 298.032L457.223 338.151C456.168 340.801 453.217 342.155 450.521 341.225C450.461 341.204 450.403 341.183 450.344 341.16C447.819 340.18 446.567 337.338 447.548 334.813L457.636 308.835C457.694 308.688 457.74 308.536 457.775 308.381C458.171 306.64 457.08 304.907 455.338 304.511C455.322 304.507 455.306 304.504 455.289 304.5C453.292 304.075 451.328 305.349 450.903 307.346L445.15 334.362C445.135 334.433 445.118 334.503 445.1 334.574C444.396 337.299 441.617 338.938 438.892 338.235C435.99 337.486 434.159 334.622 434.698 331.674L439.691 304.349C440.033 302.477 438.866 300.659 437.02 300.192C436.866 300.153 436.709 300.126 436.551 300.114C434.976 299.985 433.595 301.157 433.466 302.732L431.256 329.747C431.252 329.799 431.247 329.851 431.241 329.903C430.883 333.211 427.912 335.602 424.605 335.244C421.185 334.875 418.696 331.827 419.017 328.402C421.229 304.775 423.561 290.001 426.012 284.077C428.316 278.509 438.693 273.69 457.143 269.619Z" fill="#FF9C99"/>
<path fill-rule="evenodd" clip-rule="evenodd" d="M294.196 465.488L222.429 512.668L170.598 367.473L294.196 465.488ZM475.938 496.387L369.617 490.074L349.018 314.977L406.165 328.267L475.938 496.387Z" fill="#FF567B"/>
<path d="M333.454 174.029C333.311 173.691 333.468 173.301 333.806 173.158C334.144 173.014 334.534 173.172 334.678 173.51C340.6 187.464 348.585 194.369 358.653 194.369C359.02 194.369 359.317 194.667 359.317 195.034C359.317 195.401 359.02 195.698 358.653 195.698C347.972 195.698 339.565 188.427 333.454 174.029ZM322.723 221.014C323.054 221.172 323.195 221.569 323.037 221.9C322.879 222.231 322.482 222.372 322.151 222.214L307.532 215.236C307.2 215.078 307.06 214.682 307.218 214.35C307.376 214.019 307.773 213.879 308.104 214.037L322.723 221.014ZM281.248 111.089C281.184 110.728 281.425 110.383 281.787 110.319C282.148 110.256 282.493 110.497 282.557 110.858L284.55 122.155C284.614 122.516 284.373 122.861 284.011 122.925C283.65 122.988 283.305 122.747 283.241 122.386L281.248 111.089Z" fill="#002D6F"/>
<path d="M145.346 229.92C149.2 229.92 152.324 226.797 152.324 222.943C152.324 219.09 149.2 215.966 145.346 215.966C141.493 215.966 138.369 219.09 138.369 222.943C138.369 226.797 141.493 229.92 145.346 229.92Z" fill="#FFE694"/>
<path fill-rule="evenodd" clip-rule="evenodd" d="M68.1881 336.024L77.0129 341.166L84.5439 335.577L82.7719 344.52L88.531 346.979L83.6579 350.332L85.6515 358.828L78.1204 353.91L72.5828 359.499L71.4753 351.674C66.8976 349.587 64.6088 348.544 64.6088 348.544C64.6088 348.544 66.8976 347.202 71.4753 344.52L68.1881 336.024ZM498.698 369.459L511.871 364.198L512.194 351.176L520.466 360.762L528.082 356.562L527.586 364.763L538.589 369.846L526.766 373.882L528.148 384.722L518.637 379.243C512.439 382.469 509.34 384.082 509.34 384.082C509.34 384.082 509.829 380.43 510.807 373.126L498.698 369.459ZM282.62 342.222L295.857 349.864L307.153 341.557L304.495 354.847L313.134 358.502L305.824 363.486L308.815 376.112L297.518 368.802L289.212 377.108L287.551 365.479C280.684 362.378 277.251 360.828 277.251 360.828C277.251 360.828 280.684 358.834 287.551 354.847L282.62 342.222ZM230.427 180.542L239.497 185.827L247.237 180.082L245.416 189.274L251.335 191.801L246.327 195.248L248.375 203.98L240.635 198.924L234.944 204.669L233.806 196.627C229.101 194.482 226.748 193.41 226.748 193.41C226.748 193.41 229.101 192.031 233.806 189.274L230.427 180.542Z" fill="#56AAFF"/>
</svg>
